<svg xmlns="http://www.w3.org/2000/svg" width="240" height="324" fill="none" id="girl"><path fill="#fff" fill-rule="evenodd" d="M47.464 286.051c27.601 4.194 55.703 4.405 83.533 2.882 11.014-.825 22.062-.974 33.068.081 6.503.484 35.016 2.664 37.345-3.163-1.466-31.027-4.436-62.318-13.545-92.159-3.747-10.596-6.965-19.39-14.277-28.158-2.304-2.394-7.274-7.415-10.122-9.052-2.467-1.419-3.498-.913-4.915-3.309-1.407-2.646-2.446-7.066-4.444-8.934-2.036-1.901-5.052-1.221-8.79-.609.687-9.284-3.597-11.649-9.499-13.415-10.375-3.961-20.62-1.971-23.231 10.663-4.842 0-7.561 2.084-10.501 4.087-1.202.819-.366 2.904-1.802 3.548-2.656.946-7.35.714-9.906 1.878-11.63 5.295-21.987 12.972-28.789 24.185-15.25 23.938-25.724 74.366-23.912 102.739-.794 1.246.304 3.032.584 4.372.352 1.165 1.493 1.94 2.684 1.808 1.662 1.788 4.232 2.186 6.519 2.556Z" clip-rule="evenodd"></path><path fill="#000" fill-rule="evenodd" d="M161.709 155.78c-.169-.094-.02-.337.15-.257 8.186 3.842 14.465 10.582 18.884 18.369 4.575 8.063 7.182 17.218 9.431 26.166l.081.323c2.397 9.572 4.435 19.243 6.27 28.938 1.859 9.817 3.351 19.696 4.551 29.615.593 4.904 1.123 9.817 1.535 14.74.207 2.46.394 4.922.562 7.385.068.985.131 1.971.185 2.956l.039.74c.034.671.114 1.343-.052 2.005-.143.571-.445 1.087-.711 1.611-.525 1.035-1.965.864-2.531 0l-.164-.252c-.375-.58-.687-1.12-.805-1.842-.114-.699-.118-1.432-.169-2.138-.094-1.3-.174-2.601-.265-3.901a479.39 479.39 0 0 0-.646-8.204c-.471-5.395-.977-10.785-1.598-16.165a520.112 520.112 0 0 0-4.119-28.583c-1.595-9.266-3.611-18.438-5.714-27.599l-.218-.947c-3.682-15.994-9.357-34.413-24.696-42.96Zm-87.187 62.628c.06-.16.319-.197.363 0 .551 2.483.605 5.041.69 7.584.083 2.508.08 5.028.043 7.538-.135 9.224-.388 18.44-.607 27.663-.11 4.613-.212 9.226-.29 13.84-.03 1.731-.056 3.461-.076 5.192l-.026 2.282c-.013 1.009-.039 2.006-.162 3.014-.081.663-.254 1.295-.62 1.864-.26.403-.63.608-.99.882l-.068.052c-.46.364-.945.366-1.4 0l-.133-.105c-.435-.34-.811-.606-1.09-1.145-.386-.749-.448-1.562-.513-2.387-.1-1.251-.034-2.521-.021-3.776.026-2.517.06-5.034.105-7.551.162-9.23.482-18.461 1.066-27.675.275-4.339.648-8.693 1.148-13.015l.095-.81c.152-1.272.29-2.566.446-3.865a28.46 28.46 0 0 1-6.118-5.879c-.129-.166.083-.399.238-.238 1.783 1.846 3.827 3.319 6.09 4.476.37-2.718.88-5.422 1.83-7.941Zm38.884-82.276c.032-.025.082-.035.112 0 .5.584.399 1.476.415 2.215l.002.069c.036 1.081.043 2.159.039 3.24l-.011 3.444c-.002.473-.04.966-.016 1.442l.013.184c.263.27.385.659.296 1.049-.016.502-.278.92-.661 1.183l.819 1.162.82 1.162c1.69 2.398 3.399 4.775 5.179 7.106a97.074 97.074 0 0 0 5.78 6.865 114.69 114.69 0 0 0 3.028 3.172c.418.421.848.831 1.272 1.247l.422.417c.25.25.564.497.73.813.097.187.119.647.154.723.313.687-.221 1.783-1.107 1.44l.04-.026c.161-.113.058-.114-.31-.005a1.405 1.405 0 0 1-.654-.16l-.061-.034c-.287-.145-.543-.427-.775-.653l-.058-.055c-.533-.499-1.04-1.029-1.551-1.551a88.627 88.627 0 0 1-3.115-3.342 104.688 104.688 0 0 1-5.723-7.092c-1.84-2.489-3.549-5.106-5.02-7.83a54.926 54.926 0 0 1-1.559-3.154c-.955-.307-1.176-1.322-1.11-2.466-.352-.821-.669-1.658-.857-2.513-.026-.118.125-.228.215-.126.306.347.588.717.86 1.096.164-.802.371-1.541.469-2.011l.423-2.078c-2.385-.124-4.997.856-6.641 2.572-.089.447-.432.767-.767 1.184a7.242 7.242 0 0 0-.966 1.574c-.553 1.242-.241 3.072-1.313 3.983a1.04 1.04 0 0 1-.366.201c.509 2.496.278 5.246.267 7.778v.222c.002 2.834-.092 5.67-.202 8.501l-.111 2.802c-.144 3.737-.238 7.476.125 11.193a83.088 83.088 0 0 1 8.709-6.745l.984-.658c1.178-.791 2.386-1.604 3.676-2.17 1.688-.741 3.294-.486 4.923.273 1.623.757 3.198 1.635 4.79 2.455 1.619.833 3.241 1.66 4.863 2.489 1.074.549 2.648 1.044 3.436 2.055.05-.223.109-.446.177-.669a1.473 1.473 0 0 1 .142-1.053c2.647-4.866 5.096-9.848 7.528-14.824 1.232-2.519 2.402-5.067 3.635-7.583l1.199-2.452.604-1.223c.302-.61.617-1.214.923-1.823.129-.257.291-.512.417-.772l.06-.13c.003-.007.293-.921.069-.834l-.019.01c-.115.065-.207-.079-.132-.171.317-.393.759-.045.94.318.499 1-.415 2.569-.767 3.527l-.019.053c-1.091 3.09-2.327 6.122-3.593 9.143-2.427 5.793-5.035 11.496-7.636 17.21l-.031.098c.555-.426 1.147-.812 1.654-1.188 1.28-.948 2.597-1.849 3.912-2.748a127.185 127.185 0 0 1 7.406-4.666l.504-.295c1.258-.733 2.504-1.328 3.996-1.108 1.387.205 2.677.95 3.93 1.556l.129.062 3.871 1.841a155.86 155.86 0 0 0-1.329-4.931 179.382 179.382 0 0 0-6.28-18.205l-.35-.863c-.473-1.184-.945-2.476-2.299-2.84-1.353-.365-2.905.176-4.142-.596-.112-.07-.098-.256.038-.29l.763-.192c1.433-.357 3.113-.716 4.468-.369 1.474.378 2.694 1.616 3.409 2.903.796 1.432 1.357 3.034 1.96 4.56l.096.241a175.45 175.45 0 0 1 1.997 5.214 176.292 176.292 0 0 1 3.485 10.603c.507 1.721.987 3.449 1.448 5.182.133.498.352 1.103.531 1.733.206.201.401.425.584.68.303.424.085.921-.292 1.175-.014.434-.11.842-.341 1.191-.899 1.365-3.275 1.014-3.179-.821.015-.281.124-.549.29-.776l-.005-.037-.019-.067c-.412-.198-.826-.418-1.263-.634l-4.063-2.009c-1.177-.581-2.481-1.48-3.79-1.702-1.22-.207-2.507.703-3.555 1.251l-.068.036a388.649 388.649 0 0 0-7.555 3.995c-1.223.661-2.431 1.349-3.649 2.018-1.019.559-2.118 1.362-3.263 1.677-.489.381-1.07.33-1.537.042.213 1.322.2 2.679.266 4.03.088 1.807.101 3.619.13 5.429l.012.678c.077 4 .118 8.001.133 12.002.054 14.247-.103 28.498-.14 42.744-.018 7.158-.16 14.322-.346 21.478-.079 3.032-.244 6.06-.422 9.087l-.097 1.652c-.208 3.484-.33 7.006-.975 10.444-.084.448-.842.459-.917 0-.593-3.684-.626-7.447-.74-11.174l-.024-.744c-.137-4.001-.202-8-.189-12.002.051-14.253.422-28.496.724-42.745.153-7.159.255-14.321.492-21.477.118-3.581.252-7.16.411-10.739.071-1.598.139-3.195.245-4.791l.048-.684c.033-.446.06-.886.092-1.323-1.441.527-2.76-.449-4.056-1.116-1.495-.769-2.989-1.539-4.484-2.307l-1.496-.766-2.995-1.529c-1.348-.688-2.387-1.373-3.825-.566-5.181 2.908-9.942 6.777-14.256 10.837-.828.779-2.576.569-2.785-.736-.896-5.574-.351-11.229.106-16.821l.168-2.076c.204-2.479.427-4.958.723-7.428.133-1.104.265-2.208.411-3.311l.112-.826c.182-1.307.302-2.606.691-3.859a.908.908 0 0 1-.347-.205c-1.17-1.111-.606-3.038-.072-4.358.527-1.304 1.331-2.442 2.338-3.422.219-.213.529-.351.84-.358 2.441-1.618 5.118-2.425 7.905-1.542.078-.375.158-.748.242-1.121l.086-.373c.217-.925.297-2.453 1.095-3.072Zm25.015 146.089a2.22 2.22 0 0 1 2.142.567 2.22 2.22 0 0 1 .566 2.142 2.205 2.205 0 0 1-1.458 1.514l-.08.024-.123.052c-.38.102-.76.102-1.139 0a2.153 2.153 0 0 1-1.497-1.497 2.162 2.162 0 0 1 0-1.14l.052-.124c.104-.373.293-.697.566-.971.274-.273.598-.462.971-.567Zm44.973-75.502c.124-.143.326.04.248.192-1.179 2.314-2.494 4.611-3.786 6.866.103.625.206 1.245.324 1.849.503 2.575 1.12 5.104 1.522 7.704 1.445 9.346 2.195 18.793 2.839 28.223.646 9.463.728 18.931.825 28.413.009.822-.623 1.777-1.47 1.932-.388.071-.678.057-1.065 0-.881-.13-1.432-1.14-1.47-1.932a593.56 593.56 0 0 0-.986-15.883c-.698-9.381-1.125-18.786-1.689-28.176l-.198-3.282c-.213-3.556-.408-7.115-.472-10.676-.042-2.36.084-4.719.007-7.076-.072-2.175-.293-4.541.187-6.679.018-.08.144-.1.181-.024.498 1.05.814 2.192 1.058 3.356 1.285-1.625 2.593-3.255 3.945-4.807Zm-84.169-57.476c.18-.013.174.258 0 .278-2.521.293-4.957 1.319-7.338 2.192l-.204.074c-2.406.873-4.751 1.888-7.008 3.099-4.413 2.366-8.465 5.417-12.048 8.91-14.304 13.943-20.822 34.05-25.599 52.945-2.654 10.498-4.541 21.173-5.764 31.931a241.047 241.047 0 0 0-1.524 24.238 311.85 311.85 0 0 0-.02 4.216c0 .645.115 1.456-.057 2.081-.16.579-.61 1.09-.943 1.572-.395.573-1.105.543-1.505 0l-.148-.197c-.427-.567-.844-1.109-.905-1.849-.066-.794-.02-1.612-.023-2.41-.006-1.606.014-3.213.046-4.819.062-3.078.183-6.156.363-9.23a234.77 234.77 0 0 1 1.83-18.652 245.21 245.21 0 0 1 6.841-32.587c2.84-10.086 6.203-20.141 10.995-29.483 4.45-8.674 10.287-16.743 17.989-22.805 3.581-2.819 7.48-5.169 11.684-6.938 2.12-.892 4.346-1.621 6.61-2.036 2.24-.411 4.469-.353 6.728-.53Zm39.63 115.152c.4-.003.846.085 1.189.306l.459.355c.124.159.248.319.371.48.286.374.324.978.265 1.424a1.67 1.67 0 0 1-.265.83l-.349.452c-.336.274-.615.469-1.022.6a1.674 1.674 0 0 1-.621.073l-.067-.004.04.005-.071-.008a4.698 4.698 0 0 1-.2-.022c-.045-.005-.091-.009-.136-.015a.706.706 0 0 0-.13-.001c-.517.048-1.036-.245-1.402-.581-.331-.304-.627-.947-.581-1.403l.02-.19a2.19 2.19 0 0 1 .199-.771c.132-.314.317-.591.569-.825.482-.448 1.071-.701 1.732-.705Zm-1.598-23.52c.685-.747 1.862-.802 2.712-.35.207.11.397.287.58.435.46.372.64 1.043.666 1.608.025.559-.27 1.223-.666 1.609l-.096.093c-.237.23-.576.431-.908.492-.534.098-.983.095-1.48-.115a2.276 2.276 0 0 1-1.047-.864l-.04-.067a.877.877 0 0 1-.049-.084l-.022-.044c-.476-.916-.348-1.953.35-2.713Zm.355-23.644c.309-.097.618-.11.927-.041.21 0 .405.053.587.159.197.055.368.154.513.299.174.103.313.242.417.417.205.224.344.488.416.791l.083.618-.083.618-.235.556-.194.252a1.166 1.166 0 0 1-.419.418 1.147 1.147 0 0 1-.39.257 2.18 2.18 0 0 1-1.82.323 2.146 2.146 0 0 1-1.502-1.502l-.042-.29c-.054-.391-.062-.607.048-1.103a2.96 2.96 0 0 1 .262-.655c.315-.553.828-.932 1.432-1.117Zm26.838-17.009a138.95 138.95 0 0 1 2.662.005l.666.009c1.114.017 2.069-.098 2.945.676.636.561.355 1.503-.248 1.926-.915.64-2.062.318-3.113.248a142.36 142.36 0 0 0-3.328-.186c-2.15-.097-4.3-.158-6.451-.167a321.78 321.78 0 0 0-6.443.045c-2.184.036-4.458.24-6.63.013-.298-.031-.366-.423-.071-.525 2.046-.709 4.349-.938 6.493-1.209a98.777 98.777 0 0 1 6.651-.606c2.286-.131 4.576-.213 6.867-.229Zm-26.842-6.957.073.002c.391.001.756.092 1.097.275l.073.041.469.362c.287.29.486.631.596 1.023l.082.617c.013.319-.054.616-.199.893a1.745 1.745 0 0 1-.479.746c-.21.226-.459.386-.746.479a1.736 1.736 0 0 1-.82.201l-.073-.001a2.308 2.308 0 0 1-1.169-.317l-.47-.362a2.313 2.313 0 0 1-.595-1.023l-.083-.616c-.012-.32.054-.618.2-.894.093-.287.253-.536.478-.746.21-.226.459-.386.746-.479.255-.134.528-.201.82-.201Zm6.87-54.459c.499-.723 1.404-.08 1.275.502.034 1.633.117 3.219.489 4.819.17.732.393 1.466.737 2.137l.144.282c.445.88.79 1.709.191 2.674-.282.455-.793.796-1.346.772-2.454-.106-2.791-3.522-2.94-5.43-.154-1.964.324-4.123 1.45-5.756Z" clip-rule="evenodd"></path><path fill="#fff" fill-rule="evenodd" d="M169.838 95.119c-.8-13.147-5.065-28.051-17.615-34.506-27.667-11.108-64.044 16.865-65.97 45.442-.671 9.783 4.758 20.472 14.679 23.191 2.206 2.924 5.542 4.709 8.834 6.259 39.217 20.354 64.55 3.809 60.072-40.386Z" clip-rule="evenodd"></path><path fill="#000" fill-rule="evenodd" d="M178.773 86.941a304.472 304.472 0 0 0-4.39-11.463c-1.5-3.69-2.855-7.46-4.718-10.976-11.125-20.995-31.356-20.995-41.814-18.252-5.423-2.337-15.581-1.678-21.228.431-9.142 3.415-20.286 16.848-24.097 22.883-8.412 13.326-13.662 31.062-8.074 46.46.73 2.012 1.662 3.876 2.71 5.673a22.136 22.136 0 0 1-2.263 2.577c-2.503 2.478-5.006 4.873-7.168 7.668-2.15 2.777-3.93 5.73-5.257 8.985-2.5 6.141-2.62 13.093.685 18.952 2.877 5.098 7.972 8.894 13.712 9.256.295.041.59.079.886.108a16.582 16.582 0 0 0 2.747 3.414c3.243 3.085 10.973 4.668 15.382 4.77.226.182.454.363.683.543 2.697 2.124 5.528 4.267 8.626 5.778 2.097 1.025 4.848 1.881 7.037 1.142.993.663 2.622.524 3.606-.019 1.619-.892 2.935-2.499 3.735-4.143 1.942-3.992 1.475-8.361.977-12.626-.55-4.711-1.078-9.424-1.615-14.135-.42-3.684-.859-7.429-1.979-10.978-.579-1.838-1.337-3.605-2.318-5.266a.859.859 0 0 0-.019-.41c-.321-1.045-.984-1.592-1.77-2.302a11.33 11.33 0 0 1-.302-.279 9.524 9.524 0 0 0-1.264-1.217 64.495 64.495 0 0 1-.515-.531c-1.422-1.49-2.766-3.056-3.959-4.734-1.158-1.628-2.204-3.327-3.199-5.058-1.012-1.76-1.682-3.703-2.691-5.45a.276.276 0 0 0-.429-.055c-.313.323-.514.682-.476 1.061l-.156.023c-.06-.571-.585-1.036-1.3-.911-1.068.186-1.947.256-2.873-.099.163-1.08.313-2.163.461-3.247.27-1.995.522-3.996.737-5.998.522.125 1.04.304 1.547.533a7.439 7.439 0 0 1 1.988 1.293c.574.529.972 1.241 1.673 1.609.807.42 1.781-.275 1.544-1.188-.479-1.845-3.194-2.902-4.874-3.251a7.778 7.778 0 0 0-1.755-.158 139.13 139.13 0 0 0 .477-5.686 9.602 9.602 0 0 1 4.063-.327c.448.357.896.71 1.329 1.067a269.222 269.222 0 0 1 4.462 3.758c.803.691 1.804.006 1.669-.972-1.103-8.019 3.807-14.398 9.556-19.339 6.363-5.472 17.932-6.109 25.499-15.587 3.486.71 11.267 2.817 14.479 7.936 4.495 7.173 3.908 13.6 4.25 21.738.343 8.143 1.213 16.637-.636 24.666-1.704 7.404-6.321 13.73-13.483 16.638-.177.072-.357.141-.536.209-3.704 1.397-7.745 1.792-11.641 1.057-4.312-.816-7.912-2.79-11.499-5.218-.207-.138-.51.145-.353.352 4.728 6.269 14.015 8.364 21.382 6.709.345-.078.687-.163 1.027-.256-1.648 4.741-1.316 9.944.83 14.56 1.291 2.777 3.26 5.18 5.658 7.076 2.643 2.088 5.922 3.775 7.756 6.706 1.679 2.686 1.181 5.704-1.695 7.256-.724.393-1.003 1.663-.285 2.221.275.211.549.427.83.638 1.61 1.216 6.032 3.498 6.748 3.583 6.359.754 10.635-3.917 13.376-9.427 3.217-6.467 2.381-14.348-1.165-20.507-2.843-4.941-8.444-9.811-6.217-16.065.794-2.234 2.419-4.138 3.997-5.858 1.8-1.959 3.735-3.794 5.461-5.823 1.716-2.014 3.237-4.206 4.086-6.734 1.24-3.694.623-7.688-.308-11.377-1.997-7.917-4.589-15.728-7.35-23.407Z" clip-rule="evenodd"></path><path fill="#000" fill-rule="evenodd" d="M143.152 128.274a8.601 8.601 0 0 1-3.614-2.781 1.671 1.671 0 0 1-.338-1.297c.076-.467.352-.889.728-1.173.377-.284.849-.424 1.305-.353.397.062.791.279 1.104.73l.065.09a5.695 5.695 0 0 0 2.086 1.751 4.7 4.7 0 0 0 2.582.454c1.738-.196 2.935-1.136 4.208-2.413.158-.161.316-.327.474-.496a.746.746 0 0 1 .394-.303.864.864 0 0 1 .97.332c.097.143.153.32.135.524-.117 1.323-.808 2.503-1.79 3.43-1.091 1.03-2.537 1.742-3.898 1.992-1.499.275-3.027.078-4.411-.487Zm5.119-20.408c1.595.971 4.026 3.233 2.31 5.638-2.021 2.12-4.929-.311-6.362-1.411-1.329-.852-2.823 1.34-1.59 2.335 10.358 7.671 14.561-6.308 6.449-7.702-.894-.154-1.225.84-.807 1.14Zm-18.56-8.923c.176-2.189 3.508-2.686 3.84-.52.296 1.94-.053 3.723-.927 5.47-.834 1.668-2.932.89-3.091-.63-.213-2.037.068-2.958.178-4.32Zm25.365-.969c.465-.609 1.136-1.024 1.939-.79 2.511.735 1.771 4.301.889 6.037-.479.942-2.028 1.181-2.728.351-1.14-1.353-1.687-4.056-.236-5.39.039-.068.083-.138.136-.208Zm-22.487-8.608.397-.07c1.227-.212 2.752-.416 3.62.57.461.524.619 1.497 0 1.998-1.088.88-2.292.54-3.596.614a14.3 14.3 0 0 0-3.143.536c-2.272.65-4.123 1.835-6.063 3.137-.254.17-.514-.155-.393-.393 1.12-2.195 3.29-3.997 5.464-5.096 1.161-.587 2.43-1.073 3.714-1.296Zm20.198-.983.304.062c3.304.69 7.596 2.07 9.16 5.317.06.459-.003.557-.054.621l-.017.022c-.043.055-.076.13-.275.193a8.562 8.562 0 0 1-.168-.042c-.717-.188-1.284-.447-1.833-.716l-.596-.293c-.691-.34-1.388-.666-2.127-.907a25.038 25.038 0 0 0-4.844-1.07 1.988 1.988 0 0 1-.972-.37 1.464 1.464 0 0 1-.544-.827c-.116-.467-.082-.82.168-1.242.188-.316.458-.535.767-.661a1.798 1.798 0 0 1 1.031-.087Z" clip-rule="evenodd"></path></svg>