<svg xmlns="http://www.w3.org/2000/svg" width="240" height="324" fill="none" id="woman-with-specs"><path fill="#fff" fill-rule="evenodd" d="M192.796 271.477c-.513-4.762-.828-9.557-1.01-14.343-.181-4.781.056-9.62.16-14.402.212-9.728.556-19.48-.218-29.193-.732-9.18-2.411-18.296-5.062-27.116-1.291-4.296-2.651-8.765-4.774-12.734-2.135-3.991-5.517-6.648-9.231-9.085-3.955-2.595-7.878-5.239-11.817-7.858-3.307-2.198-9.258-4.756-11.971-7.695-2.855-3.092-3.391-10.758-5.293-14.421-1.851-3.568-7.092-5.895-11.128-5.895-6.68 0-11.741-.342-17.233 5.84-2.741 3.084-.56 6.202-3.433 9.162-2.64 2.722-9.394 5.519-12.798 7.098a138.992 138.992 0 0 1-12.496 5.048c-4.325 1.518-8.76 2.649-13.11 4.081-4.169 1.373-9.613 7.031-12.85 10.025-3.008 2.783-3.755 2.471-6.043 5.853-5.02 7.42-10.046 14.926-14.044 22.961-1.992 4.002-3.92 8.212-4.642 12.656-.771 4.741-.007 9.322 1.243 13.912 1.272 4.671 5.312 9.119 6.628 13.778.607 2.147-1.475 4.49-.517 6.514.478 1.01 1.08 1.91 1.766 2.79.528.679 2.589.528 2.856 1.359.269.838-1.222 2.579-1.244 3.447-.031 1.242-.08 2.484-.122 3.726l-.24 7.343-.475 14.477c-.052 1.575-.127 3.114.25 4.609a3.342 3.342 0 0 1-.384-.418c-.346-.453-1.08-.069-.787.46.49.883 1.196 1.504 2.025 1.95.963 1.421 146.827 4.594 147.545.441.403-2.331-.33-4.825-.623-7.14-.305-2.412-.668-4.813-.928-7.23Z" clip-rule="evenodd"></path><path fill="#000" fill-rule="evenodd" d="M44.626 211.468c.356-1.023 1.989-.58 1.63.449-1.848 5.294-.538 11.054 1.46 16.107.4 1.014-1.235 1.45-1.63.45-2.101-5.316-3.4-11.447-1.46-17.006m12.386 30.236c5.21.733 10.424 1.185 15.67 1.551.234.017.437-.019.613-.095a304.448 304.448 0 0 0-.383 7.213c-1.43-.04-2.89.055-4.308.017a118.099 118.099 0 0 1-16.242-1.583c-1.322-.222-3.002-.357-4.508-.797-1.424-.416-2.692-1.105-3.357-2.403-.566-1.099-.67-2.445-.67-3.66 0-.837.144-1.687.23-2.53a1.32 1.32 0 0 0 .283-.268c1.572.496 3.203.845 4.8 1.183 2.601.554 5.24 1.002 7.872 1.372m-2.938-19.542a8.341 8.341 0 0 0 1.345 4.443c.588.92-.876 1.767-1.46.853-1.023-1.601-1.542-3.399-1.576-5.296-.019-1.09 1.671-1.087 1.69 0m133.549 17.623c.705.039 1.415.063 2.123.101.624.534 1.488.808 2.277.638.027.068.052.145.074.233.14.543.21 1.126.29 1.68.08.545.141 1.095.184 1.645.021.276.154.902-.015 1.143-.152.218-.488.199-.721.226-.625.068-1.259.1-1.888.152l-3.566.311c-1.165.102-2.443.07-3.581.376a524.356 524.356 0 0 1-.537-6.856c1.764.26 3.608.254 5.36.351m-147.913-3.79c.71 1.372 1.365 2.72 2.723 3.545.178.105.377.162.58.177a21.284 21.284 0 0 0-.332 1.938c-.186 1.359-.226 2.765.114 4.105.331 1.304.88 2.468 1.958 3.303.5.389 1.048.685 1.623.919a1.895 1.895 0 0 0-.125.842c-.137.691-.228 1.395-.327 2.069a145.698 145.698 0 0 0-.607 4.499c-.342 2.993-.61 5.986-.836 8.989a297.412 297.412 0 0 0-.524 8.995c-.07 1.535-.131 3.069-.188 4.605-.057 1.579-.313 3.194.384 4.659.562 1.183 2.461 1.116 3.044 0 .74-1.419.522-3.103.541-4.659.02-1.464.045-2.931.076-4.396.064-2.999.157-5.996.23-8.995.073-2.927.161-5.852.22-8.779.03-1.533.032-3.065.04-4.597.005-.85.04-1.756-.023-2.642.529.125 1.06.23 1.587.338a110.259 110.259 0 0 0 18.325 2.188c1.513.055 3.08.16 4.617.103-.12 3.669-.176 7.34-.17 11.012.005 2.648.04 5.296.106 7.944.036 1.393.066 2.786.108 4.179.019.625.019 1.257.061 1.881.013.194.04.382.076.568-.14.396-.255.786-.35 1.152-.465 1.775-.465 3.481-.258 5.29.177 1.535 1.468 2.957 3.173 2.418.277-.087.553-.178.828-.271 2.51.286 5.035.352 7.58.4 3.72.072 7.443.095 11.166.114 7.301.038 14.605.057 21.908.078 14.677.043 29.354.083 44.031.125l12.219.036c2.109.006 4.213.008 6.319.089.983.038 1.967.091 2.95.106 1.138.019 2.146-.309 3.234-.607.615-.171.858-.789.727-1.31.984.234 2.178-.265 2.514-1.374a3.337 3.337 0 0 0-.211-2.425v-.002c-.706-4.457-1.602-8.893-2.305-13.353-.771-4.884-1.513-9.779-2.166-14.682-.49-3.703-.893-1.078-1.242-4.798 1.519.118 3.237-.344 4.741-.541 1.08-.139 2.168-.252 3.249-.399-.08 1.09-.057 2.202-.086 3.248-.057 2.078-.032 4.147.021 6.224.101 4.01.327 1.676.688 5.669.366 4.022.814 8.029 1.357 12.032a366.99 366.99 0 0 0 1.341 9.052c.184 1.131.243 2.202 1.091 3.052.644.644 1.96.59 2.387-.309.541-1.135.296-2.107.095-3.299a348.38 348.38 0 0 1-1.409-9.035 536.892 536.892 0 0 1-1.578-11.905c-.482-4.006-.981-1.666-1.454-5.671-.239-2.021-.477-4.037-.756-6.051-.142-1.036-.231-2.139-.416-3.206.059-.008.118-.019.177-.03 1.285-.234 2.381-.959 2.704-2.282.309-1.266-.059-2.723-.319-3.965-.222-1.058-.422-2.41-1.103-3.317 2.4-3.058 3.961-6.906 4.957-10.606 1.084-4.03 1.538-8.238 1.634-12.403a73.25 73.25 0 0 0-1.078-14.341c-.02-1-.066-2-.14-2.998-.727-9.798-3.778-21.395-13.449-25.973-.038-.019-.079-.036-.119-.053-.758-.907-1.705-1.722-2.469-2.485a50.752 50.752 0 0 0-4.27-3.838c-2.971-2.361-6.228-4.246-9.615-5.944-3.425-1.718-6.9-3.33-10.246-5.205-2.916-1.636-5.54-3.606-8.031-5.829-2.799-2.501-4.791-5.872-5.573-9.551-.04-.192-.325-.139-.329.044-.205 6.744 4.345 12.704 9.583 16.475 6.262 4.504 13.823 6.636 20.174 11.003 1.578 1.084 3.054 2.308 4.459 3.608-2.152-.22-4.343-.081-6.361.515-.794-.048-1.593-.063-2.389-.101a1218.139 1218.139 0 0 0-16.621-.702 1238.88 1238.88 0 0 0-21.889-.581c-14.664-.26-29.347-.311-44.01.114-3.975.114-24.882-.678-26.818-.454 2.846-2.465 5.969-4.477 9.402-6.132 4.295-2.064 8.734-3.442 13.32-4.702 9.446-2.593 19.255-5.094 26.814-11.681a27.392 27.392 0 0 0 4.914-5.607c1.306-1.991 2.757-4.54 2.793-6.969.026-1.724-2.374-2.352-3.228-.875-.53.915-.792 1.919-1.225 2.879a20.93 20.93 0 0 1-1.511 2.745c-1.117 1.725-2.503 3.263-4.012 4.652-3.215 2.963-7.111 5.134-11.142 6.776-9.152 3.726-19.162 5.298-27.834 10.21-3.795 2.15-7.427 5.115-9.706 8.898-.368.057-.733.125-1.099.201.273-.345.547-.689.824-1.031.182-.225-.099-.52-.32-.322-4.313 3.838-8.285 7.983-11.885 12.502-3.443 4.324-6.655 8.855-8.928 13.919-4.086 9.097-4.986 19.501-2.875 29.228a45.937 45.937 0 0 0 2.419 7.754 48.583 48.583 0 0 0 1.751 3.817" clip-rule="evenodd"></path><path fill="#fff" fill-rule="evenodd" d="M132.798 46.281c11.996 0 27.02 13.69 31.417 19.515 3.697 4.898 3.174 30.129 3.174 45.096 0 3.13-1.414 9.055-1.928 12.049-1.881 10.972-10.079 20.174-26.304 20.174-13.211 0-23.378-4.186-33.209-14.893-2.243-2.442-13.197 6.302-15.437 3.153-5.852 0-10.744-54.693.744-71.097 11.489-16.405 29.547-13.997 41.543-13.997Z" clip-rule="evenodd"></path><path fill="#000" fill-rule="evenodd" d="M96.743 50.133c6.932-6.309 16.166-9.344 25.483-9.12 4.826.117 9.634 1.036 14.191 2.61 2.28.791 4.487 1.823 6.598 2.99.76.419 1.462.91 2.137 1.432l.168.131h.002c1.811.651 3.427 1.82 4.893 3.187 2.939-.234 5.901.03 8.742.937 3.955 1.264 7.616 3.578 10.187 6.864 2.995 3.826 3.991 8.467 3.636 13.258l-.066.814c-.351 4.233-.98 9.676-4.453 12.457a2.713 2.713 0 0 1-.857.47c2.237 3.833 4.073 8.09 5.171 12.389 4.194 16.419.97 33.543-4.073 49.369-.414 1.304-2.385 2.17-3.388.896-1.792-2.278-4.395-4.016-7.323-4.341-1.806-.201-3.604.163-5.311-.657a4.861 4.861 0 0 1-1.781-1.495 22.984 22.984 0 0 1-9.064 1.482c-5.051-.207-10.451-1.957-13.926-5.795-.558-.616-.7-1.308-.571-1.932a7.508 7.508 0 0 1 1.344-.344c4.407 2.599 9.265 4.335 14.486 4.444 3.017.063 5.959-.359 8.405-2.243.53-.408 1.016-.86 1.466-1.345 5.114-3.291 8.72-8.881 10.434-14.869 1.598-5.584 1.401-11.398.852-17.126l-.29-3.022c-.422-4.436-.814-8.886-.924-13.34l.033-.002c1.08-.07 1.088-1.761 0-1.691-2.814.182-5.606-.28-8.412-.078-.023-1.327-.119-2.648-.508-3.927-.223-.731-1.495-.876-1.63 0-.18 1.17-.246 2.335-.266 3.511-4.198-.056-8.392-.41-12.591-.264-.774-.826-1.021-2.292-1.383-3.311-.053-.15-.106-.298-.161-.448a23.962 23.962 0 0 1-1.363 4.276l-1.03.003c-5.843.028-11.804.203-17.509 1.416-.397-.304-.633-.835-.697-1.318-.413-3.14-1.004-6.196-2.051-9.188l-.149-.422a3.512 3.512 0 0 1-.039-.112c-.771 1.246-1.692 2.407-2.696 3.488a35.137 35.137 0 0 1-1.848 1.838c-.618.687-1.257 1.364-1.877 2.053.025.125.046.252.063.382.189 1.43.209 2.88.07 4.315a20.708 20.708 0 0 1-2.159 7.408l-.038.232c-.178 1.084-.432 2.204-1.026 3.02a7.73 7.73 0 0 1 1.642 2.924c.295.981-1.062 1.831-1.765 1.028a8.185 8.185 0 0 0-1.862-1.586c-.043.058-.121.087-.208.038-1.899-1.055-5.125-.736-7.023.258-2.36 1.234-3.28 3.768-3.019 6.336.252 2.454 1.325 5.322 3.406 6.579.955.577 1.698.626 2.713.349.324-.088.726-.358.898-.492l.17-.137c.665-.525 1.284-.885 2.069-.899.803-.25 1.609.097 1.916.939l.019.054c.144.429.406.968.349 1.624-.059.701-.381 1.34-.86 1.853a4.285 4.285 0 0 1-.262.26c8.26 8.947 9.321 22.887 5.085 34.063-.184.491-.38.975-.585 1.455-.708 1.644-3.433 1.134-3.78-.495a36.444 36.444 0 0 0-1.129-4.098l-.113-.326c-.251-.718-.486-1.443-.739-2.162l-.026-.082-.031-.112-.429.936-1.304 2.826c-.61 1.319-2.548.602-2.62-.669l-.002-.043a22.534 22.534 0 0 0-.894-5.745l-.17.212c-2.542 3.145-5.526 6.092-9.62 6.818-1.026.181-2.188-.892-1.483-1.93.292-.429.573-.869.84-1.315a8.585 8.585 0 0 1-.65-.334c-1.552-.872-2.845-2.115-3.914-3.525-2.267-2.988-3.078-6.75-3.277-10.432-.211-3.891.131-7.993 1.194-11.747.46-1.623 1.083-3.181 1.804-4.692-.05-.135-.1-.27-.148-.406a61.622 61.622 0 0 1-1.946-6.628 64.65 64.65 0 0 1-1.713-13.85c-.127-8.333 1.31-16.8 4.337-24.571 3.127-8.014 7.83-15.735 14.23-21.558Zm-3.893 72.861c-.574-.904-2.011-.089-1.478.821l.02.033c.91 1.435 1.337 3.067 1.861 4.667.336 1.029 1.97.589 1.63-.451l-.114-.347c-.52-1.622-.996-3.271-1.92-4.723Zm5-17.263.381-.185c1.204-.574 2.258-.965 3.679-.464 1.904.67 3.943 2.803 2.656 4.872-.473.763-1.314 1.067-2.18.887-1.46-.302-1.837-1.618-2.578-2.698l-.128-.183c-.452-.653-1.023-1.556-1.775-1.813-.171-.059-.243-.325-.055-.416Zm1.073-43.93.123-.111c.818-.723-.382-1.915-1.196-1.196-3.722 3.29-5.015 8.441-6.946 12.83-.433.988 1.023 1.85 1.46.855 1.842-4.19 3.064-9.2 6.56-12.379Zm44.734-1.44c-.972-.439-1.823.977-.888 1.443l.035.017c3.287 1.486 4.686 4.85 6.025 7.974.427.998 1.883.138 1.46-.852l-.242-.56c-1.397-3.22-3.027-6.5-6.39-8.022Zm5.153-2.034c-1.031-.357-1.473 1.275-.45 1.632 2.786.97 4.698 3.062 6.31 5.455.604.896 2.068.05 1.458-.854-1.872-2.777-4.094-5.108-7.318-6.233Z" clip-rule="evenodd"></path><path fill="#000" fill-rule="evenodd" d="M143.152 128.274a8.601 8.601 0 0 1-3.614-2.781 1.671 1.671 0 0 1-.338-1.297c.076-.467.352-.889.728-1.173.377-.284.849-.424 1.305-.353.397.062.791.279 1.104.73l.065.09a5.695 5.695 0 0 0 2.086 1.751 4.7 4.7 0 0 0 2.582.454c1.738-.196 2.935-1.136 4.208-2.413.158-.161.316-.327.474-.496a.746.746 0 0 1 .394-.303.864.864 0 0 1 .97.332c.097.143.153.32.135.524-.117 1.323-.808 2.503-1.79 3.43-1.091 1.03-2.537 1.742-3.898 1.992-1.499.275-3.027.078-4.411-.487Zm5.119-20.408c1.595.971 4.026 3.233 2.31 5.638-2.021 2.12-4.929-.311-6.362-1.411-1.329-.852-2.823 1.34-1.59 2.335 10.358 7.671 14.561-6.308 6.449-7.702-.894-.154-1.225.84-.807 1.14Zm-18.56-8.923c.176-2.189 3.508-2.686 3.84-.52.296 1.94-.053 3.723-.927 5.47-.834 1.668-2.932.89-3.091-.63-.213-2.037.068-2.958.178-4.32Zm25.365-.969c.465-.609 1.136-1.024 1.939-.79 2.511.735 1.771 4.301.889 6.037-.479.942-2.028 1.181-2.728.351-1.14-1.353-1.687-4.056-.236-5.39.039-.068.083-.138.136-.208Zm-22.487-8.608.397-.07c1.227-.212 2.752-.416 3.62.57.461.524.619 1.497 0 1.998-1.088.88-2.292.54-3.596.614a14.3 14.3 0 0 0-3.143.536c-2.272.65-4.123 1.835-6.063 3.137-.254.17-.514-.155-.393-.393 1.12-2.195 3.29-3.997 5.464-5.096 1.161-.587 2.43-1.073 3.714-1.296Zm20.198-.983.304.062c3.304.69 7.596 2.07 9.16 5.317.06.459-.003.557-.054.621l-.017.022c-.043.055-.076.13-.275.193a8.562 8.562 0 0 1-.168-.042c-.717-.188-1.284-.447-1.833-.716l-.596-.293c-.691-.34-1.388-.666-2.127-.907a25.038 25.038 0 0 0-4.844-1.07 1.988 1.988 0 0 1-.972-.37 1.464 1.464 0 0 1-.544-.827c-.116-.467-.082-.82.168-1.242.188-.316.458-.535.767-.661a1.798 1.798 0 0 1 1.031-.087Z" clip-rule="evenodd"></path><path fill="#000" fill-rule="evenodd" d="M166.085 109.758c-1.423 1.912-4.06 2.521-6.492 2.311-5.246-.505-6.897-6.466-7.069-11.098 3.518.99-.298-6.022 11.727-6.793 4.239-.353 3.071 2.208 4.944 4.08-.039 3.927-.692 8.194-3.11 11.5m-24.987-4.512c-3.097 14.51-20.058 11.058-21.839-2.021 1.645-1.162 1.212-4.03 3.255-5.07 3.24-2.07 7.289-1.981 10.967-1.933 4.702.323 6.042 2.272 8.457 4.398-.116 1.419-.451 3.102-.84 4.626m31.705-13.47a26.913 26.913 0 0 0-.522-.082 1.563 1.563 0 0 0-.481-.173 8.202 8.202 0 0 0-1.264-.219c-6.028-1.357-19.973.57-20.549 5.716-1.919.64-3.58.067-5.805.124-1.694-7.081-30.972-6.082-32.38-1.813l-.016-.004c-1.353-.419-3.347-.318-4.896-.384a42.522 42.522 0 0 0-9.852.923c-6.058.963-14.326 2.09-10.113 9.659a.02.02 0 0 1 .003.004v-.001c.727.745 1.959.145 2.005-.863-1.417-3.585 1.783-4.016 4.244-5.046 6.126-2.202 12.362-2.507 18.697-1.826.477.562 1.2 1.051 1.964 1.307 4.236.704 2.003 3.847 4.681 4.304-.492 10.957 12.805 16.937 20.51 9.735 3.076-3.009 3.81-7.466 4.523-11.484.377-.084.617-.291.757-.564.907-.906 1.477-1.742 3.27-1.99 1.794-.25 3.174.25 3.361.402.047.095.098.19.156.285.082.142.194.255.321.344-1.771 10.911 6.696 17.811 15.243 12.152 3.714-3.495 4.499-8.846 4.654-13.622.504-.304.823-.893.648-1.633-.24-1.021.323-1.905 1.22-2.349 1.166-.576.96-2.681-.379-2.903" clip-rule="evenodd"></path></svg>