<svg xmlns="http://www.w3.org/2000/svg" width="240" height="324" fill="none" id="man-with-blazer"><path fill="#fff" fill-rule="evenodd" d="M186.455 183.121c-2.932-13.899-13.333-24.684-27.32-30.057-2.689-1.521-5.295-8.049-8.909-9.244-.579-.192.335 1.333 0 1.424-1.195.325-2.534.359-3.853-.814-2.358-2.097-3.098-8.223-4.532-10.991-7.561-14.602-26.441-8.889-28.97 7.253-1.763 1.15-4.256 2.163-6.176 3.09-1.977.954-3.716 3.265-5.753 4.091-1.818.737-4.813.215-6.644.858-8.424 2.956-15.56 6.686-21.153 14.244-1.179 1.594-2.507 3.554-3.58 5.164-5.53 6.368-9.37 13.506-12.908 21.164-9.897 22.477-12.589 47.364-15.004 71.582.055 4.238-2.756 15.987 1.401 18.019-.248.258-.158.775.303.771 10.54-.107 21.057.837 31.434 2.672 5.007.885 9.987 2.099 15.087 2.298 10.587-.073 21.135-1.847 31.708-.168 12.711 0 28.158-.371 42.298-.914 13.215-.509 26.501.639 39.553-1.609 1.033-.164 1.537-1.424 1.321-2.327-1.531-5.582-2.283-11.327-3.142-17.04.171-3.664-.135-7.49-1.49-10.903-3.541-23.041-8.081-45.932-13.671-68.563Z" clip-rule="evenodd"></path><path fill="#000" fill-rule="evenodd" d="M182.19 213.406a22.963 22.963 0 0 1-1.189 3.993c-.501 1.238-1.255 2.348-1.774 3.572a.886.886 0 0 1-.322.384l.043.333.04.333c.259 2.246.55 4.487.803 6.733l.122 1.123c.497 4.69 1.28 9.356 1.889 14.034.596 4.58 1.202 9.16 1.85 13.733.67 4.715 1.353 9.424 2.149 14.12a401.97 401.97 0 0 0 1.053 5.946l.282 1.515c2.907.7 3.702 4.753.742 6.25-1.344.676-3.07.513-4.177-.55-1.151-1.107-1.198-3.105-1.465-4.605l-.258-1.394c-1.925-10.484-3.595-21.089-4.376-31.72-.201-2.746-.37-5.493-.48-8.243-.104-2.587-.054-5.173-.094-7.759l-.014-.706c-.061-2.758-.01-5.512.062-8.27.008-.336.023-.672.04-1.01a.909.909 0 0 1-.196-.381l-.039-.173c-.095-.446.013-.968.355-1.287.148-1.879.343-3.756.395-5.632.005-.155.226-.15.239 0 .125 1.597.374 3.199.623 4.799 1.604-1.289 2.789-3.415 3.488-5.195.051-.129.239-.082.209.057Zm-37.939-74.695c.266 1.217.792 2.31 1.498 3.327.336.486.718.938 1.177 1.316.393.324.841.535 1.259.816a1.932 1.932 0 0 1 1.671.583l-.067-.655c-.022-.211.329-.253.369-.048 1.849 9.325 3.534 18.656 4.993 28.048l.64 4.148.602 3.894c.999 6.489 1.966 12.975 2.693 19.512.97 8.722 1.785 17.468 2.381 26.226.598 8.82.966 17.646 1.228 26.482.065 2.228.135 4.454.203 6.681l.451-2.663c.45-2.664.892-5.33 1.27-8.006 1.359-9.576 2.445-19.22 2.975-28.879.486-8.838.323-17.852-1.924-26.463a53.048 53.048 0 0 0-2.096-6.376c-.812-2.021-1.919-3.894-2.791-5.884-1.014-2.317-1.319-4.502-.797-6.996.457-2.173 1.258-4.216 1.401-6.452.268-4.151-1.082-8.171-2.989-11.804a64.855 64.855 0 0 0-1.587-2.839c-1.675-2.83-3.564-5.556-5.525-8.171-.105-.139.119-.293.233-.179 1.787 1.767 3.741 3.504 5.349 5.434a60.317 60.317 0 0 1 2.267 2.878c7.927 1.325 14.738 6.264 19.394 12.787 5.284 7.401 7.957 16.31 9.934 25.083 2.2 9.749 4.054 19.588 6.03 29.386 2.045 10.139 4.079 20.277 6.137 30.413 1.022 5.032 2.045 10.065 3.065 15.099a399.802 399.802 0 0 0 1.629 7.632c.292 1.302.605 2.602.875 3.908.304 1.473.021 2.415-.976 3.498-.368.401-.949.395-1.405.182l-.143-.068-.138-.066c-.564-.278-1.007-.566-1.358-1.183-.387-.679-.448-1.431-.581-2.186-.246-1.388-.488-2.777-.733-4.167-.367-2.08-.765-4.154-1.17-6.227l-2.033-10.361c-.542-2.763-1.085-5.525-1.631-8.286-1.95-9.874-3.902-19.747-5.854-29.619-1.875-9.479-3.533-19.023-5.667-28.448l-.121-.531-.123-.53c-1.908-8.124-4.574-15.983-9.411-22.868-3.722-5.294-8.892-10.022-14.981-12.415.429.618.841 1.248 1.234 1.89 2.468 4.033 4.27 8.82 3.847 13.622-.207 2.346-1.098 4.651-1.014 7.016.078 2.101 1.378 3.946 2.276 5.774 2.038 4.143 3.513 8.545 4.464 13.062 1.908 9.069 1.901 18.4 1.244 27.606-.714 10.008-2.07 20.013-3.615 29.923-.792 5.083-1.846 10.124-2.653 15.199-.399 2.502-.943 4.998-1.418 7.488l-.226 1.189a50.916 50.916 0 0 1-.411 1.97l-.094.389v.07c-.004.48-.135.877-.346 1.194-.29.928-.649 1.833-1.126 2.701-.245.444-.6.693-.987.785-.389.889-1.27 1.574-2.322 1.57l-13.836-.053c-8.036-.032-16.073-.085-24.11-.129-2.028-.01-4.054-.049-6.08-.101-1.899-.053-3.72-.281-5.598-.518-2.122-.266-3.271-1.769-2.954-3.889.07-.467.146-.932.218-1.397-.423.139-.926.074-1.266-.258l-.319-.312c-.442-.438-.837-.867-1.117-1.451-.29-.6-.525-1.234-.78-1.847a193.937 193.937 0 0 1-1.61-3.971c-1.046-2.659-2.091-5.328-3.063-8.015a206.116 206.116 0 0 1-5.109-16.18 208.75 208.75 0 0 1-5.755-29.695l-.288-2.388-.083-.706c-.457-3.883-.841-7.827-.66-11.703.112-2.426.488-4.871 1.395-7.137.836-2.09 2.127-3.878 3.355-5.747l.14-.215.141-.221c1.074-1.697 1.928-3.471 1.97-5.532.044-2.092-.565-4.127-1.246-6.085l-.17-.483-.114-.319c-1.448-4.047-3.097-8.036-2.553-12.439.803-6.484 4.732-11.711 9.676-15.741-4.397.87-8.749 2.591-12.59 4.772-4.535 2.578-8.62 5.981-12.141 9.821-6.655 7.258-11.406 15.966-15.296 24.957-4.071 9.409-7.09 19.268-9.365 29.257-2.288 10.045-3.82 20.251-4.866 30.498a432.295 432.295 0 0 0-1.271 15.327c-.174 2.62-.305 5.245-.508 7.862-.202 2.614-.293 5.269-.931 7.814-.298 1.185-2.307 1.306-2.523 0-.477-2.917-.344-5.934-.21-8.888l.011-.268c.132-2.942.303-5.882.505-8.822.415-6.009.968-12.009 1.69-17.99 2.534-20.996 7.205-41.881 16.368-61.046 4.314-9.027 9.851-17.798 17.554-24.316a44.906 44.906 0 0 1 12.257-7.368c3.985-1.604 8.033-2.363 12.267-2.361 2.123-1.627 4.403-3.045 6.68-4.257.137-.073.281.104.167.218-.059.057-.116.116-.175.172.257.016.523.137.762.388.837.877 1.543 1.974 2.174 3.113.961 1.201 1.878 2.442 2.838 3.629a256.765 256.765 0 0 0 4.698 5.637c2.672 3.126 5.431 6.192 8.308 9.136l.481.489c1.491 1.511 3.002 3.32 4.766 4.516l.094.063c.744.485 1.272.573 1.907-.151.577-.66 1.057-1.425 1.55-2.152l.115-.167c2.52-3.662 4.857-7.46 6.971-11.37.964-1.78 1.881-3.585 2.751-5.41l.26-.548c.473-1.006.987-1.993 1.377-3.029.091-.243.18-.486.266-.727-1.331-.873-2.361-2.762-2.735-4.242-.389-1.536-.192-3.113.5-4.518.131-.265.571-.199.634.082Zm-65.66 62.439c-.184 5.842-.295 11.69-.57 17.528l-.095 1.992c.428.478.68 1.03.48 1.787a.962.962 0 0 1-.597.648l-.09 1.853c-.407 8.337-.885 16.656-1.758 24.972-1.092 10.407-2.356 20.797-3.617 31.185-.18 1.471-1.202 2.637-2.793 2.422-1.61-.218-2.262-1.619-2.051-3.08.83-5.729 1.629-11.463 2.328-17.212l.796-6.549c1-8.188 2.021-16.373 3.2-24.534.491-3.411 1.003-6.821 1.516-10.23l-.18-.232c-.733-.953-1.491-1.885-2.241-2.824-1.441-1.809-2.863-3.603-4.183-5.497-.066-.095.067-.235.162-.163 1.85 1.368 3.603 2.83 5.365 4.316l1.542 1.306c.887-5.89 1.766-11.783 2.55-17.688.019-.148.24-.158.236 0Zm26.622-55.906c-1.113 1.05-2.252 2.077-3.374 3.122l-.411.384-.409.386c-1.972 1.871-3.861 3.818-5.435 6.054-2.89 4.107-4.612 9.113-3.41 14.127.997 4.153 3.285 7.917 3.9 12.173.308 2.133.158 4.276-.645 6.29-.82 2.055-2.13 3.815-3.306 5.669-2.556 4.028-2.905 8.449-2.651 13.116.266 4.874.826 9.749 1.517 14.579a205.62 205.62 0 0 0 6.297 28.953c1.397 4.749 3.047 9.397 4.688 14.063.818 2.323 1.771 4.591 2.753 6.848a220.435 220.435 0 0 0 1.587 3.548c-.199-1.665-.199-3.375-.296-5.03-.14-2.371-.317-4.738-.48-7.107-.331-4.809-.627-9.621-.891-14.433-.936-17.162-1.625-34.339-1.574-51.528.025-8.595.201-17.191.57-25.778.174-4.044.509-8.084.813-12.122l.064-.866c.269-3.624.59-7.257 1.141-10.85a8.106 8.106 0 0 1-.41-1.124l-.038-.144.028.004a1.186 1.186 0 0 1-.028-.334Zm9.63-14.769c.023-.1.164-.091.19 0 .627 2.113.405 4.438-.135 6.564a19.084 19.084 0 0 1-1.207 3.348l-.175.377c-.429.918-.912 1.864-1.747 2.436-.349.239-.972.254-1.321 0l-.178-.135-.086-.07c-.325-.273-.486-.875-.336-1.272.387-1.025 1.264-1.778 1.87-2.691a17.504 17.504 0 0 0 1.407-2.557c.851-1.925 1.234-3.969 1.718-6Z" clip-rule="evenodd"></path><path fill="#fff" fill-rule="evenodd" d="M130.31 50.45c9.459 0 20.807 4.587 21.772 4.68h.026c.508 0 2.492 1.512 5.951 4.536l-3.747 7.312.303.29c1.452 1.391 2.69 2.66 3.668 3.66 7.984 8.165 9.419 40.225 7.538 51.405-1.882 11.18-5.367 22.12-21.592 22.12-16.225 0-34.276-9.759-37.056-12.799-1.854-2.026-3.936-2.996-6.247-2.912l-.283-.358-.34-.048c-3.197-.464-5.489-1.087-6.874-1.871-2.705-1.531-5.678-9.579-5.678-11.352 0-1.755-4.439-14.523-4.528-15.875l-.001-.037c0-1.13-5.8-6.322-5.8-7.97 0-1.65-1.169-1.55 0-7.36l.34-1.708c1.244-6.186 3.679-16.43 12.962-20.882 10.202-4.892 30.032-10.83 39.586-10.83Z" clip-rule="evenodd"></path><path fill="#000" fill-rule="evenodd" d="M89.15 61.05c5.088-5.402 33.973-13.758 48.586-11.987l.439.057c1.166.148 2.315.372 3.45.676 3.666.857 7.453 2.154 10.482 4.32 2.53 1.773 10.508 4.667 8.156 9.304.872 1.653 1.197 3.694.608 5.322-.074.562-.247 1.08-.469 1.617 1.863 2.75 3.338 5.86 4.532 8.817 2.086 7.444 3.384 15.191 3.574 22.786.633 14.429-.949 31.665-13.511 40.996-7.589 5.912-19.477 6.111-28.005-1.22-.484-.573-2.76-2.119-2-2.39.226.238.458.471.695.699a.139.139 0 0 1-.009-.078l-.222-.202c-.419-.388-.962-.95-.344-.84.027.032.057.059.086.091.131.078.23.147.307.207l.04.031-.012-.012c-.356-.38-.57-.768-.037-.52l.07.034c.237.249.478.488.723.721a.138.138 0 0 1 .015-.085l-.229-.221c-.223-.218-.189-.219-.08-.396-.474-.665.411-.27.473-.011.554-.131 1.04.909 1.397 1.036 15.633 12.024 38.321 1.355 37.953-32.149l-.005-.656c-.108-10.713-1.009-21.724-5.438-31.422a27.99 27.99 0 0 0-1.443-2.722 26.702 26.702 0 0 0-1.177-1.928 17.435 17.435 0 0 1-3.484-.645c-.393-.099-.782-.209-1.17-.338-5.679.31-11.231.647-16.926.967l-1.779.11c-4.824.31-9.813.808-13.706 3.793-3.82 2.717-3.837 8.076-7.107 11.06-4.662 3.165-4.696 6.02-5.594 10.686.066 3.516 2.504 8.626-1.969 10.106.754 1.077-.298.56-.38.182-.009.002-.017.004-.024.004.673 1.251-.316.463-.403.062a.388.388 0 0 1-.159-.106c.678 1.096-.417.328-.352.129-1.31-2.013-4.004-2.326-5.903-1.792-.024.072-.108.078-.16.04-8.077 1.751-5.993 18.476 2.283 16.859.354-.072.346.098.416.114-.191-.502.348-.297.342-.192l.033-.002c.026-.002.015-.005.035.002-.185-1.027.855.461.773.522a.264.264 0 0 1 .1-.034l-.036-.097c-.173-.46-.158-.269-.157-.533-.13-.325-.139-.183-.109-.395.456-.353.591.719.743.797-.261-.364-.054-.66.192-.463 1.864 3.922 4.272 7.607 7.384 10.511.34.268.685.532 1.041.782 1.324 1.153 3.354 1.895 4.593 2.916a.13.13 0 0 1-.02.059l.028.026.029.027.431.207c.126.108.24.229.342.362.108.124.202.262.283.408.04.177-.049.251-.218.175-.074-.025-.148-.055-.222-.082l.011.014c.024.037.188.418-.001.356l-.022-.009c-.104-.038-.207-.08-.309-.12.121.15.23.312.328.45a.721.721 0 0 1 .192.378c-.004.08-.049.114-.129.104a14.118 14.118 0 0 1-.363-.127l.034.065c.085.168.206.449-.009.355a6.778 6.778 0 0 1-.539-.194c-.015.03-.044.04-.103.013a10.865 10.865 0 0 1-1.631-.736c-.459-.334-.921-.661-1.382-.993-.433-.26-.851-.55-1.25-.875a27.234 27.234 0 0 1-6.867-6.362c-3.103 2.689-9.308.12-13.146-1.984-3.395-1.881-4.729-5.359-5.074-9.109-.717-5.048-4.841-6.776-4.554-17.853-.007.002-.013.002-.022.002a2.196 2.196 0 0 1-.433-.18 2.198 2.198 0 0 1-.4-.245l-.153-.214a1.308 1.308 0 0 1-.207-.137l-.029.037c-.09.109-.03-.055-.024-.088l-.268-.364c-.635-.868-1.332-1.841-1.9-2.62l-.018.032c-.013.024-.02.04-.013.048-1.351-1.942-2.622-4.287-2.975-6.558-.417-1.749-.254-3.551.11-5.171 1.559-5.674 6.666-18.513 13.37-24.016Zm36.665 78.465-.085-.075.075.093a.631.631 0 0 0 .144.136.105.105 0 0 1-.003-.047 2.943 2.943 0 0 1-.131-.107Zm11.857-87.6c-9.91-.853-19.658 1.33-29.114 3.975l-.653.187c-5.377 1.535-11.063 2.916-15.607 6.202-6.349 4.864-9.627 12.603-12.488 19.748-2.498 5.309-1.221 11.295 2.543 15.002.392-3.684 1.06-7.26 2.104-10.807.217-.554.053-.735.522-.808.71 9.56-2.783 16.622 4.128 27.951 2.998 5.345-.473 9.256 7.995 12.069l.229.088c1.764.666 3.69 1.191 5.418.819l-.155-.252c-.157-.259-.205-.385.024-.496-.006-.013-.014-.025-.023-.04a29.452 29.452 0 0 1-.537-1.065c-.069.023-.139.04-.211.059.047.086.053.173-.078.203a3.691 3.691 0 0 1-1.433.193l-.105-.007a4.825 4.825 0 0 1-1.213-.229c-.103-.017-.207-.033-.308-.055-1.003-.222-2.064-.788-2.75-1.348-7.83-4.449-7.02-19.592 2.63-21.023.197-9.535 4.731-25.62 12.254-34.705 6.8-8.357 25.365-11.98 38.281-10.702.188.062.377.125.565.189 1.993.177 3.892 1.065 5.886 1.477-1.432-1.073-3.056-1.788-4.729-2.396-3.334-2.04-7.155-3.143-10.847-3.921a10.674 10.674 0 0 0-2.328-.309ZM98.148 109.94c.519-.282.46-.009.579-.088 3.732-.305 7.756 2.964 9.842 5.689-.164.171-.61-.336-.688-.416a.1.1 0 0 1-.036.023l.058.082c.846 1.214-.831-.215-.988-.509a.124.124 0 0 1-.086.017c.133.13.538.47.608.712l.108.09c1.014.869.93 1.523-.222.288.027.058.038.11.019.153l.04.026c.566.396 1.032 1.5-.152.367.123.827-1.173-.772-1.215-.761-2.243-1.762-5.546-3.475-8.36-3.705l-.096-.011c-.517-.067-.76-.22-.58-.558-.636-.151-.487-.464-.186-.454-.448-.295-.044-.577.216-.467-.179-.496.539-.166.604-.235.373-.574.473-.095.535-.243Zm-7.823-30.72c1.792-.656 7.087 1.31 6.663 3.914-.252.598-1.083.94-1.667.603l-.763-.512c-1.326-.889-2.523-1.668-3.948-2.444-.775-.385-1.109-1.202-.285-1.56Zm10.198-3.87-.692-.45c-3.736-2.446-9.017-6.153.349-2.318 1.068.458 2.486.729 3.069 1.746.915 1.874-1.493 2-2.726 1.022Zm.42-10.975c-.3-1.138 3.431.198 4.517.55l.165.062c1.056.394 2.267.76 2.899 1.671.74 1.26-.758 1.521-1.686.952-1.903-1.244-3.989-2.182-5.895-3.235Zm9.486-5.301c-2.099-2.294 3.52-.097 4.362.513l.024.018c.628.442.501 1.395-.089 1.675-1.679.032-2.915-1.368-4.297-2.206Zm9.555-2.514c-3.338-2.4 1.059-1.258 2.587-.318 1.041.919-.032 2.469-2.587.318Z" clip-rule="evenodd"></path><path fill="#000" fill-rule="evenodd" d="M138.835 118.841c1.181-1.945 3.701 2.819 3.968 3.638.237.726.394 1.469.473 2.221a6.874 6.874 0 0 0 2.807.026c1.395-.268 2.248-1.018 3.461-1.662.837-.446 1.893.076 2.329.815.512.869.186 1.771-.488 2.419-1.278 1.229-3.793 1.511-5.461 1.185a7.05 7.05 0 0 1-2.605-1.067c-.005.098-.009.195-.016.292l-.015.168c-.128 1.363-.503 3.077-1.561 3.964-1.735 1.454-3.877-1.343-2.191-2.796l.053-.044c1.048-.847 1.276-3.12 1.22-4.372a9.055 9.055 0 0 0-.444-2.423l-.053-.155c-.077-.22-.924-2.306-1.23-2.04l-.014.015c-.126.151-.33-.025-.233-.184Zm9.436-10.975c1.595.971 4.026 3.233 2.31 5.638-2.02 2.12-4.929-.311-6.362-1.411-1.329-.852-2.822 1.34-1.589 2.335 10.357 7.671 14.56-6.308 6.448-7.702-.893-.154-1.225.84-.807 1.14ZM131.235 98.9c1.56-.277 3.157.11 4.447 1.023l.098.07c1.243.91 2.633 2.507 1.92 4.074-.286.63-1.143.728-1.687.443-.906-.475-1.07-1.644-1.878-2.291-.663-.53-1.556-.852-2.409-.774-2.005.182-3.239 2.16-3.861 3.865-.08.218-.4.303-.525.069-1.469-2.746 1.131-5.989 3.895-6.48Zm24.974-1.037c2.987-.246 6.483 2.852 5.696 6.005-.377 1.514-2.621 1.47-3.019 0-.22-.809-.198-1.524-.78-2.196-.48-.554-1.163-.877-1.897-.827-.808.054-1.554.459-2.121 1.027-.512.513-.818 1.264-1.349 1.718-.13.112-.305.119-.434 0-.912-.841-.365-2.594.214-3.473.828-1.257 2.177-2.129 3.69-2.254Zm-30.661-4.557c1.916-1.697 5.397-3.335 7.981-2.5 1.485.48 2.133 2.874.475 3.633-1.921.879-4.135.521-6.089 1.432-.821.383-1.593.861-2.164 1.563-.45.553-.908 1.28-1.56 1.599-.171.084-.402.086-.54-.07-1.427-1.615.651-4.553 1.897-5.657Zm27.368-2.584c1.184-.333 2.498-.326 3.701-.117 1.203.209 2.423.707 3.405 1.434l.114.085c1.072.808 2.351 1.984 2.282 3.415-.057 1.195-1.314 2.004-2.399 1.377-.884-.51-1.3-1.534-2.049-2.215a7.049 7.049 0 0 0-2.119-1.317 7.281 7.281 0 0 0-2.645-.522c-.711-.012-1.426.222-2.124.296.058.118-.494.063-.81-.041-.234-.1-.235-.396-.154-.588.403-.952 1.867-1.546 2.798-1.807Z" clip-rule="evenodd"></path></svg>