<svg xmlns="http://www.w3.org/2000/svg" width="260" height="324" fill="none" id="monster"><path fill="#fff" fill-rule="evenodd" d="M137.498 128.859c11.336-.812 26.877 1.436 30.156 14.366 1.017 4.705 3.02 6.771 6.386 9.848 21.365 27.356-53.178 31.954-57.01 5.278-8.073 2.942-16.861 3.565-24.938 6.537-4.382 1.62-8.354 4.174-12.161 6.845-15.524 11.03-30.828 22.375-46.296 33.485 5.986 2.757 17.366 13.285 12.729 20.36-1.08 1.378-2.684 2.328-4.102 3.335l-.748.535c-1.61 1.153-4.318 3.119-5.816 4.188l-.276.201c-.109.079-.23.167-.341.245 10.802 15.8 23.444 30.377 37.467 43.393 1.194 1.11.705 3.593-1.023 3.882l-2.059.303c-6.648.968-13.422 1.84-20.121 1.314-6.525-.71-10.456-6.488-14.917-10.673-8.907-9.108-17.198-18.823-24.75-29.085l-.157-.217c-2.35-3.213-5.47-6.497-5.699-10.646-.416-1.247.68-3.035 1.733-3.885l.36-.519c5.647-8.126 12.038-15.962 20.046-21.846a2.84 2.84 0 0 1 1.178-2.379l33.466-24.229c8.636-5.945 16.661-12.931 26.02-17.731 9.571-4.61 20.372-4.791 30.179-8.638.208-2.773 6.035-3.481 5.851-3.053 6.149-3.713 9.314-8.13 10.29-12.19.977-4.06-.237-7.762 4.553-9.024Zm82.76 86.985c10.348-15.576 20.212 1.658 24.52 12.045 5.09 14.215-5.451 31.701-12.26 43.956-2.508 3.403-5.807 10.581-10.228 11.102-11.138-.046-22.292-.83-33.436-1.064-7.197-1.786 2.9-12.605 9.874-8.653 2.113.791 3.169 3.191 5.229 3.961.751.16.803-.175 1.108-.923l.044-.104c.544-1.294 1.072-2.596 1.608-3.893 4.538-11.178 9.335-22.258 14.104-33.333 1.019-2.404-.41-4.386-2.268-5.817-1.422-1.171-7.537-4.03-1.776-2.772-2.218-5.151.448-10.38 3.481-14.505Zm-25.692-21.323c.996-.124 2.276.88 2.429 1.853 1.271 8.067-.145 16.042-1.843 23.932l-.312 1.445c-.626 2.878-1.326 5.812-2.887 8.335-1.594 2.574-4.005 4.514-6.772 5.694-8.879 3.539-19.921.039-26.452-6.578-4.178-5.726-.505-12.919.196-19.194-.663-1.691-.907-3.647-1.29-5.39l-.047-.208-1.489-6.504c-.329-1.434.716-3.397 2.434-3.2a151.34 151.34 0 0 0 36.033-.185Z" clip-rule="evenodd"></path><path fill="#000" fill-rule="evenodd" d="M236.38 213.807c-.036-.161.156-.283.281-.163 2.106 2.031 3.594 4.627 5.227 7.032 1.555 2.291 3.247 4.493 4.407 7.021 1.077 2.35 1.772 4.734 1.979 7.317.207 2.564-.061 5.134-.513 7.659-.89 4.975-2.791 9.686-4.878 14.262-2.03 4.448-4.323 8.77-6.744 13.013l-.868 1.515c-1.059 1.845-2.129 3.685-3.275 5.472-1.426 2.224-2.727 4.519-4.608 6.375-1.335 1.32-3.851 0-3.243-1.888.264-.822.472-1.596.881-2.359.311-.581.662-1.145.991-1.718.659-1.145 1.312-2.295 1.971-3.441 1.384-2.407 2.842-4.77 4.213-7.185 2.379-4.189 4.625-8.457 6.611-12.848l.233-.519c1.828-4.067 3.559-8.279 4.362-12.678.845-4.635.088-9.004-1.557-13.36-.852-2.253-1.809-4.455-2.804-6.649l-.191-.419c-.961-2.094-1.98-4.176-2.475-6.439Zm-102.285-80.17c.019-.082.158-.088.171 0 .592 3.936-.725 8.099-2.869 11.373-1.17 1.788-2.613 3.403-4.314 4.701l-.133.1c-1.737 1.299-4.084 2.554-6.241 1.711a1.328 1.328 0 0 1-.19-.089c.243.376.467.772.695 1.167.678 1.177 1.286 2.397 1.948 3.584 1.183 2.124 2.592 4.024 4.373 5.688 7.122 6.65 17.122 8.23 26.513 8.154l.663-.006c4.125-.029 9.52.182 12.705-2.805 1.711-1.604 2.653-3.885 3.505-6.026.837-2.099 1.409-4.265 2.104-6.4-1.451-.995-2.782-2.21-3.828-3.631a14.72 14.72 0 0 1-2.389-4.922l-.071-.265c-.367-1.418-.737-3.293-.145-4.632.068-.154.321-.144.393 0 .319.641.38 1.363.577 2.048.228.797.486 1.589.826 2.344a17.005 17.005 0 0 0 2.567 4.071c.86 1.008 1.791 1.933 2.856 2.711.628-1.084 2.083-1.23 3.302-.873 1.634.478 3.246 1.091 4.821 1.739l.315.13c1.557.646 3.317 1.24 4.775 2.122.885.422 1.734.847 2.533 1.223 3.979 1.87 7.899 3.855 11.802 5.877l.836.434c1.635.852 3.255 1.712 4.677 2.9 1.448 1.209 2.571 2.862 3.628 4.411 2.415 3.542 4.69 7.186 7.077 10.747 4.821 7.186 9.642 14.372 14.491 21.541 1.173 1.735 2.495 3.428 3.547 5.237 1.008 1.729.981 3.504.784 5.434l-.037.354c-.376 3.54-1.024 6.939-3.009 9.975-3.125 4.772-8.048 7.743-13.255 9.789.636.474 1.233.985 1.992 1.311 1.166.499 2.41.757 3.672.86 1.346.108 2.862-.228 3.953.687.437.365.45 1.245 0 1.61-1.048.856-2.403.611-3.68.467l-.077-.008c-1.185-.131-2.353-.351-3.467-.786a9.777 9.777 0 0 1-.811-.362.165.165 0 0 1 .009.081c-.191 1.456-.603 2.833-1.038 4.224l-.277.882a495.65 495.65 0 0 1-1.711 5.393c-1.109 3.42-2.318 6.808-3.531 10.191l-1.047 2.92c-1.075 2.995-2.164 5.986-3.368 8.931-.743 1.818-1.491 3.635-2.237 5.451-.729 1.773-1.335 3.688-2.239 5.377-.744 1.39-2.772.395-2.447-1.034.427-1.874 1.232-3.734 1.847-5.558.625-1.852 1.238-3.705 1.874-5.553 1.105-3.209 2.33-6.375 3.562-9.538l1.22-3.136c1.197-3.072 2.408-6.142 3.702-9.175l.142-.332c1.344-3.172 2.733-6.739 5.176-9.197a.19.19 0 0 1 .12-.056 7.844 7.844 0 0 1-1.656-1.187l-.024-.025c-.196-.207-1.003-1.227-1.263-1.837-.338.12-.676.236-1.014.35-.589.199-1.077.055-1.422-.26l-.656.407c-.701.428-1.455.834-2.23.855-.976.026-1.743-.513-2.264-1.308-.469-.71-.748-1.477-1.342-2.114-.584-.625-1.259-1.153-1.95-1.656l-.814-.593c-1.492-1.09-2.939-2.191-4.14-3.63-.604-.727-1.414-1.59-1.781-2.463a1.441 1.441 0 0 1-.125-.481c-.08.545-.163 1.092-.245 1.638-1.153 7.674-2.085 15.401-2.383 23.161-.146 3.828-.211 7.66-.04 11.489.084 1.913.224 3.824.416 5.73.095.955.194 1.909.311 2.86l.026.22c.034.291.056.573.031.841.929.458 1.464 1.617 1.836 2.521.283.689.063 1.359-.393 1.843a7.974 7.974 0 0 1 1.438 1.748c.083.135-.095.241-.2.156-.67-.532-1.391-.97-2.143-1.306-.395.15-.826.19-1.223.081-.431-.119-.803-.406-1.071-.772a8.465 8.465 0 0 0-6.279 1.416 8.44 8.44 0 0 0-1.105.936c-.059.06-.12.136-.182.21l.42.161c.174.066.316.117.371.128.366.075.738.115 1.109.147l.558.046c2.14.177 4.273.236 6.264 1.132.418.188.272.833-.123.941-1.453.394-2.895.364-4.375.258l-.317-.024c-1.376-.105-2.852-.099-4.194-.479.321.879-.116 2.027-1.458 2.206-4.028.537-8.083.284-12.116-.072-4.073-.359-8.144-.699-12.228-.912-13.21-.696-26.44-.562-39.661-.373l-7.472.108c-5.959.084-11.918.149-17.877.104l-2.788-.026a181.054 181.054 0 0 1-3.536-.061l-.706-.023c-1.403-.051-3.26.16-4.479-.67-1.006-.685-1.23-1.94-.623-2.953.175-.291.416-.551.667-.805.516-4.406.805-8.834 1.101-13.26 1.027-15.488.427-30.895-1.941-46.227-6.355 1.943-12.613 4.38-18.71 6.994a285.065 285.065 0 0 0-9.822 4.419c-2.96 1.406-5.932 3.162-9.095 4.075-.288.255-.69.377-1.046.264l-.047-.017h-.002c-.325.076-.686.03-1.041-.183a23.66 23.66 0 0 1-.216-.133l-.107-.068c-1.114-.702-2.233-1.566-3.022-2.623-.956.888-1.985 1.701-2.997 2.526a332.557 332.557 0 0 0-3.28 2.705c-.43.361-.906.706-1.286 1.122l-.055.061a.551.551 0 0 0-.025.03c1.646 1.065 3.086 2.682 4.377 4.087 1.386 1.509 2.725 3.065 4.052 4.628l1.285 1.516c9.086 10.733 18.264 21.855 30.027 29.744 1.86 1.247.087 4.284-1.76 3.009-3.494-2.407-6.8-5.081-9.976-7.894-5.564-4.926-10.571-10.453-15.26-16.212a287.875 287.875 0 0 1-6.931-8.907l-.766-1.019a145.975 145.975 0 0 1-3.007-4.118l-.204-.293c-.852-1.23-1.759-2.613-2.308-4.03a2.19 2.19 0 0 1-.799.529c-.596.232-1.327-.256-1.472-.837-.355-1.41.87-2.249 1.867-2.997 1.21-.905 2.445-1.778 3.68-2.646l.442-.312c1.545-1.097 3.1-2.222 4.783-3.089a1.03 1.03 0 0 1 .182-.186c.08-.063.158-.125.239-.186-2.012-3.263-4.217-6.4-6.679-9.363a80.543 80.543 0 0 0-5.894-6.374l-.934-.905c-1.412-1.364-2.881-2.749-4.45-3.935l-.49.557a46.933 46.933 0 0 1-2.017 2.174 306.957 306.957 0 0 0-4.088 4.163c-2.245 2.325-4.415 4.72-6.577 7.119l-1.081 1.2c-2.252 2.5-4.665 4.954-6.712 7.625l-.103.136c-.893 1.199-1.53 2.526-1.114 4.049.4 1.469 1.353 2.771 2.175 4.039l.081.127c3.353 5.225 6.945 10.316 10.792 15.188 7.705 9.758 16.493 19.006 26.98 25.791 1.454.94.096 3.278-1.36 2.327-6.124-4.005-11.75-8.815-16.927-13.981-4.751-4.741-9.057-9.961-13.092-15.319a162.41 162.41 0 0 1-5.658-8.012c-1.751-2.648-3.777-5.372-5.047-8.293-.665-1.537-.91-3.2-.365-4.819.5-1.488 1.488-2.724 2.517-3.886l.096-.109a448.908 448.908 0 0 1 7.198-7.881c2.436-2.608 4.984-5.123 7.585-7.564a54.244 54.244 0 0 1 6.45-5.183c-.206-.145-.41-.285-.62-.42-.636-.414-.796-1.3-.238-1.862 1.523-1.539 3.279-2.877 4.93-4.278l4.66-3.954c3.16-2.68 6.32-5.362 9.48-8.044 5.678-4.817 11.323-9.667 16.98-14.505 2.36-2.017 4.74-4.008 7.116-6.006l4.22-3.552 2.063-1.734c1.058-.886 2.138-1.762 3.34-2.437 2.83-1.59 6.231-2.278 9.348-3.121l.208-.056a248.657 248.657 0 0 1 10.546-2.661 274.247 274.247 0 0 1 10.661-2.196c3.207-.596 6.49-1.107 9.76-1.183.812-.309 1.83-.417 2.629-.087.329.137.674.338.98.592 1.599-.563 3.177-.831 4.671-1.782 1.492-.949 2.812-2.196 3.923-3.57 2.297-2.844 3.499-6.205 4.306-9.716Zm36.763 96.332c-1.268-.089-2.409.435-3.541.993.638.277 1.276.552 1.914.824l4.246 1.814c1.403.598 2.888 1.118 4.221 1.855a.728.728 0 0 1 .229.191c1.386-.888 2.852-1.68 4.257-2.524l.967-.577c-1.673.56-3.388.841-5.205.315-2.424-.699-4.528-2.711-7.088-2.891Zm3.473-4.252-.228-.155c-1.229-.844-2.697-1.929-4.19-1.171-.703.358-1.28.935-1.973 1.319a8.635 8.635 0 0 1-2.242.867 9.918 9.918 0 0 1-4.157.054l.021 1.877c1.05.434 2.093.878 3.137 1.326.678-.232 1.33-.51 2.016-.816l.462-.207c1.321-.594 2.654-.991 4.114-.803 2.748.353 4.825 2.396 7.453 3.077 3.222.837 6.129-1.568 9.173-2.162a8.76 8.76 0 0 1 1.534-.166l.171-.001.076-.045c.655-.384 1.636-.752 2.092-1.399.496-.701.539-1.877.701-2.701.017-.082.034-.167.049-.249a4.67 4.67 0 0 0-.875.07c-.929.171-1.804.5-2.67.868-1.637.696-3.239 1.488-4.963 1.951-1.688.454-3.452.67-5.191.418-1.696-.245-3.105-1.01-4.51-1.952Zm.264-6.599-.254-.164c-.672-.429-1.442-.873-2.265-.715-.735.142-1.366.727-2.007 1.088-1.405.793-2.981 1.226-4.588 1.336a11.175 11.175 0 0 1-4.012-.469l.044 4.155c.471.15.959.258 1.473.296 1.559.116 3.08-.258 4.388-1.118l.661-.439c1.132-.745 2.195-1.335 3.693-1.064 1.483.271 2.727 1.222 3.94 2.05l.199.134c1.392.92 2.804 1.513 4.512 1.528 1.845.014 3.668-.499 5.385-1.131 1.705-.626 3.326-1.376 5.149-1.606.558-.07 1.238-.091 1.878.019a78.584 78.584 0 0 0 .67-4.447c-3.235-.871-6.222 1.946-9.226 2.815a9.952 9.952 0 0 1-5.383.011c-1.613-.451-2.881-1.385-4.257-2.279Zm.008-6.998c-.691-.133-1.373.186-1.96.514-1.498.831-2.791 1.987-4.488 2.424-2.182.562-4.569.078-6.737-.841l.03 3.849a9.219 9.219 0 0 0 5.871.24c1.523-.446 2.691-1.65 4.219-2.026 1.562-.386 3.034.365 4.293 1.218l.379.259c1.438.976 2.834 1.825 4.634 1.991 1.904.175 3.558-.421 5.259-1.211l.396-.183c2.153-.99 4.948-2.116 7.097-.99.169-1.598.292-3.196.374-4.796a2.72 2.72 0 0 0-.955-.192c-.843-.004-1.728.262-2.514.539-1.717.607-3.317 1.511-5.017 2.16-1.612.617-3.398.938-5.117.662-1.593-.256-2.789-1.089-3.89-2.23l-.16-.169c-.482-.514-.999-1.079-1.714-1.218Zm1.262-5.932c-.797-.421-1.766-.812-2.688-.689-.878.116-1.464.712-2.005 1.35l-.293.349c-.969 1.146-1.922 2.109-3.414 2.581-1.547.486-3.186.295-4.625-.417-.511-.253-.987-.568-1.464-.879l.025 3.371c.955.475 1.927.905 2.994 1.165 1.969.479 3.642.124 5.326-.962l.177-.115c1.268-.833 2.568-1.825 4.135-1.918 1.529-.092 2.676.756 3.683 1.794l.118.123c1.269 1.339 2.552 1.993 4.441 1.838 1.831-.149 3.544-.958 5.222-1.655l.152-.063c1.534-.63 3.302-1.279 4.986-1.038a5.06 5.06 0 0 1 1.39.4c.068-1.577.1-3.156.106-4.736-.957-.831-2.447-.968-3.644-.628-1.876.532-3.412 1.906-5.204 2.652-1.589.662-3.245.81-4.865.184-1.674-.647-2.986-1.879-4.553-2.707Zm18.16-6.641c-2.803.097-5.546 1.921-8.222 2.617-2.991.776-5.431-.282-8.095-1.457l-.344-.151c-1.366-.601-2.835-1.14-4.35-.895-1.476.241-2.782 1.059-4.052 1.799l-.243.14c-2.313 1.317-4.668 2.219-7.369 1.994.015.848.009 1.693.011 2.522.444.254.87.541 1.276.803l.146.092c1.287.806 2.614 1.335 4.149.838 1.483-.482 2.18-1.773 3.199-2.836.936-.977 2.157-1.57 3.526-1.514 1.472.059 2.865.708 4.081 1.501 1.217.793 2.394 1.817 3.818 2.215 3.194.887 5.93-2.492 8.951-3.018 1.268-.222 2.667.059 3.624.824a227.541 227.541 0 0 0-.106-5.474Zm-24.131-.765a338.735 338.735 0 0 0-5.571.266c-1.012.055-2.256.366-3.249.057a1.534 1.534 0 0 1-.104.294c.15.748.243 1.522.3 2.304a8.865 8.865 0 0 0 2.753-.123c2.17-.45 3.932-1.819 5.871-2.798Zm24.089-.628c-5.339.368-10.718.242-16.066.357l-.641.015c-.026 0-.051.003-.076.003a32.99 32.99 0 0 1 1.828.787l.605.278c1.433.659 2.891 1.198 4.494 1.082 1.718-.125 3.336-.827 4.942-1.393 1.531-.541 3.295-.905 4.929-.668l-.015-.461Z" clip-rule="evenodd"></path><path fill="#fff" fill-rule="evenodd" d="M185.731 90.93c-.242-4.626-.453-9.405-1.34-13.959-.434-2.232-1.304-4.293-2.71-6.085-1.286-1.64-2.905-2.912-4.547-4.175-3.3-2.54-6.473-5.35-10.166-7.314-3.545-1.885-7.377-3.022-11.347-3.533-7.648-.984-15.68.654-22.321 4.583-6.442 3.81-11.62 9.725-14.824 16.468-1.593 3.35-2.789 6.887-3.433 10.544-.768 4.359-.699 8.73-.671 13.139a79.173 79.173 0 0 1-.078 4.44 13.21 13.21 0 0 0-.185 2.222c-1.458 1.92-2.052 4.485-1.138 6.847 1.458 3.77 5.593 5.485 9.348 4.827.168.98.573 1.946 1.077 2.886a53.405 53.405 0 0 0 2.849 4.688c2.116 3.121 4.531 5.95 7.413 8.391 5.712 4.839 12.948 8.009 20.452 8.468 6.831.418 14.037-1.526 19.608-5.535 2.891-2.081 5.394-4.631 7.253-7.684 2.172-3.568 3.351-7.674 3.963-11.779 1.342-9.012 1.27-18.361.797-27.44Z" clip-rule="evenodd"></path><path fill="#000" fill-rule="evenodd" d="M131.859 43.134c-.258-2.91 2.424-5.1 4.912-4.285.457.057.901.2 1.297.443 1.146.7 1.396 1.829 1.097 2.804.538.406.961.957 1.174 1.62.22.684.197 1.348-.01 1.926.781.516 1.371 1.294 1.508 2.258.065.459.039.913-.07 1.33 1.182.402 2.147 1.3 2.132 2.661.686.044 1.374.054 2.073.015.1-.282.222-.557.404-.81.366-.51.887-.86 1.463-1.078l.079-.029-.001-.154c-.442-.49-.648-1.107-.178-1.779.08-.115.179-.21.288-.292.039-.292.102-.58.179-.864-.389-.543-.347-1.444.307-1.714a4.711 4.711 0 0 1 .002-1.633c.403-2.267 2.59-3.812 4.845-3.725.282.01.557.053.822.12.549.058 1.095.18 1.632.364.62.21.78.728.643 1.166.842 1.126 1.081 2.655.233 4.03-.032.052-.067.102-.102.152.17.128.318.297.427.513.276.545.208 1.237-.213 1.692a1.07 1.07 0 0 1-.415.271l-.003.045c-.055.73-.171 1.463-.39 2.152.892.83 1.485 1.958 1.59 3.174.333.03.665.067.997.104.049-.333.251-.633.558-.866.256-.194.53-.35.812-.466a3.507 3.507 0 0 1 1.028-1.9c.208-.197.435-.37.677-.52a4.2 4.2 0 0 1 .574-2.232 3.272 3.272 0 0 1 1.437-1.304c.422-.85 1.205-1.542 2.343-1.936.851-.295 1.751.055 2.398.605l.145.127c.593.524.808 1.486.589 2.229a3.513 3.513 0 0 1-.524 1.088c.263 1.162-.261 2.13-1.064 2.675.275.391.505.824.7 1.287.337.8-.042 1.796-.649 2.426.266.424.438.919.502 1.416.271.015.54.064.805.139.144-.489.415-.943.829-1.314a5.24 5.24 0 0 1 .638-.973c.38-.455.872-.783 1.409-.916.072-.17.173-.331.3-.479-.128-1.48.853-3.01 2.364-3.011.107-.346.237-.687.394-1.022.306-.657.955-1.05 1.658-1.18.414-1.008 1.225-1.74 2.619-1.862 3.112-.273 5.07 3.503 4.31 6.213a3.564 3.564 0 0 1-1.458 2.002 2.91 2.91 0 0 1-.556.277 2.438 2.438 0 0 1-.986.797c.008 1.21-.827 2.194-1.863 2.507.066.763-.129 1.528-.708 2.118l-.041.04-.084.076-.007.033c.206.53.185 1.116-.111 1.597.026.442.104.874.252 1.285a9.661 9.661 0 0 1 1.529 1.573c.301-.273.756-.397 1.15-.248.109-.037.222-.06.33-.072.179-.018.355-.017.528-.004a2.26 2.26 0 0 1 .276-.33c.735-.727 1.802-.712 2.648-.26.152-.111.323-.209.516-.29 2.159-.91 3.574 1.83 3.784 3.537.115.932-.687 1.507-1.509 1.555-.168.565-.704.972-1.304 1.11.107.698-.356 1.41-.986 1.675-.281.119-.553.151-.809.117l.012.165c.05.656-.281 1.073-.735 1.258a.993.993 0 0 1-.579.68c1.06 2.457 1.897 5.031 2.572 7.57 1.114 4.19 1.863 8.457 2.366 12.763.884 7.569.918 15.293.033 22.866-.45 3.853-1.198 7.619-2.729 11.198-1.276 2.985-3.052 5.576-5.095 8.082-4.06 4.979-9.872 8.647-16.277 9.558-3.362.478-6.81.322-10.091-.594-3.267-.912-6.75-2.477-8.808-5.256-.558-.752-.286-1.972.334-2.593.708-.708 1.728-.754 2.592-.335 1.534.745 2.913 1.762 4.473 2.472 1.407.641 2.929 1.051 4.444 1.341 3.001.575 6.265.428 9.257-.373 5.427-1.453 10.208-4.958 13.244-9.686 3.585-5.585 4.865-12.13 5.451-18.653.641-7.139.575-14.376-.276-21.494-.422-3.53-1.071-7.03-1.839-10.499-.547-2.47-1.164-4.924-1.745-7.386a31.058 31.058 0 0 1-1.526-1.56l-.015-.002a1.176 1.176 0 0 1-.196.033c-2.915.222-6.074-.07-8.56-1.75a8.818 8.818 0 0 1-2.501-2.543c-.894-.62-1.708-1.401-2.319-2.304a21.12 21.12 0 0 1-1.235-1.49c-.973-1.284-1.49-2.632-2.069-4.114a.574.574 0 0 1-.03-.1 1.744 1.744 0 0 1-.227-.582 55.271 55.271 0 0 0-3.88-.316 92.38 92.38 0 0 0-1.369-.054c.12.447.192.91.208 1.386.369.016.745.059 1.13.12 1.805.288 2.963 1.213 4.06 2.662 1.067 1.41 1.918 3.107 2.55 4.757.387 1.01-.129 2.127-.979 2.778-2.206.187-4.374.662-6.404 1.601a.339.339 0 0 0-.158.16 79.51 79.51 0 0 1-4.886 1.3c-1.576.362-3.167.513-4.752.113-.681-.171-1.347-.426-2.002-.711a1.79 1.79 0 0 1-1.121-.247 26.794 26.794 0 0 1-1.759-1.1 30.361 30.361 0 0 1-3.003-1.627l-.005-.008c-.77-.933-1.868-1.885-3.097-2.605a3.939 3.939 0 0 1-.352-.66c-.529-1.287-.308-2.844.808-3.729.016-.305.149-.604.444-.844.233-.19.473-.37.719-.543-.051-.038-.103-.075-.154-.114a4.428 4.428 0 0 1-.294-.245c-.745.409-1.496.808-2.265 1.164-.019.014-.038.03-.058.043-1.445.948-2.812 2.038-4.275 2.953-.351.218-.699.43-1.046.643-.13.178-.256.357-.379.54a5.319 5.319 0 0 1-.231.838c.191.153.347.353.453.591a6.66 6.66 0 0 1 1.282.655l.353.157a9.311 9.311 0 0 1 1.452-.969c1.621.106 3.372 1.254 4.604 2.425.086.098.17.196.251.295.078.063.156.13.235.196a9.5 9.5 0 0 1 .355.405c.122.148.26.23.401.264.754.709 1.461 1.506 1.944 2.334.776 1.33.232 2.988-.336 4.293-.093.213-.191.422-.293.63-1.087 1.464-2.117 2.969-3.146 4.474a59.598 59.598 0 0 0-2.041 2.047 3.59 3.59 0 0 1-.346.206c-1.918.988-3.772-.124-5.599-.816l-.204-.075c-1.883-.681-4.227-1.129-4.346-3.581a7.186 7.186 0 0 1 .03-1.023 37.36 37.36 0 0 1 1.587-3.61 2.365 2.365 0 0 1-.317-.432 3.625 3.625 0 0 1-.471-.778c-.875 1.675-1.708 3.472-2.832 4.942-.619.81-1.391 1.102-2.209 1.1a1.948 1.948 0 0 1-1.105.189l.04.448c.034.374.073.748.131 1.114.792-.013 1.619.204 2.357.496 2.164.856 4.25 2.042 6.338 3.07 1.009.496 2.394.912 3.218 1.687.631.595.559 1.331.319 2.097-.041.13-.086.26-.129.39l-.002.043c-.674.848-1.135 1.86-1.469 2.906-.547.93-.929 1.974-1.188 2.996-.211.831-.361 1.68-.458 2.535l-.025.234-.014.027-.007.202a25.836 25.836 0 0 0 .003 4.528c.035.416.079.833.133 1.249-.236.736-1.353.839-1.932.387a18.34 18.34 0 0 0-2.002-1.358 4.217 4.217 0 0 1-3.103.152c-.076-.025-.148-.055-.22-.084-.794.098-1.58.284-2.332.503l-.226.066c-1.2.362-2.343.813-3.247 1.731-1.605 1.63-2.122 4.264-1.794 6.469.318 2.145 1.563 4.597 3.805 5.221.917.255 1.906.248 2.798-.109.339-.136.63-.332.916-.547.351-.265.628-.563 1.045-.73.381-.153 1.038-.141 1.223-.15.58-.028 1.071.426 1.242.946.52 1.585-.261 2.75-1.517 3.529.528.8 1.023 1.636 1.546 2.392a76.861 76.861 0 0 0 3.079 4.121 38.623 38.623 0 0 0 3.545 3.91c.576.55 1.17 1.081 1.78 1.591l.338.28c.57.476 1.069.961 1.049 1.792-.011.466-.32.898-.778 1.022-1.619.439-3.317-1.685-4.372-2.775l-.083-.085a37.272 37.272 0 0 1-3.538-4.145c-1.107-1.511-2.013-3.179-2.744-4.9-.339-.8-.708-1.714-.969-2.639-1.407.546-3.041.741-4.16.612a8.265 8.265 0 0 1-2.826-.847 3.81 3.81 0 0 1-.692 1.055c-1.055 1.119-2.59 1.439-4.077 1.425-1.904-.017-3.612-1.218-3.681-3.245-.045-1.313.635-2.441 1.628-3.209.368-.909 1.067-1.659 2.08-1.902-.67-2.073-.788-4.357-.284-6.45.498-2.072 1.636-4.035 3.319-5.328l.096-.073-.04.022c-.398.219-.786.456-1.179.682l-.177.101c-1.747.987-3.771 1.835-5.805 1.307-3.229-.838-3.508-4.867-.73-6.457.96-.55 2.069-.756 3.165-.894.173-.225.378-.427.605-.59.034-.74.406-1.48 1.065-1.946.671-.474 1.426-.521 2.128-.303a4.184 4.184 0 0 1 1.678-.764c-.005-.221-.007-.442-.011-.664-.044-.206-.07-.422-.098-.646-.05-.009-.1-.017-.149-.027a4.855 4.855 0 0 1-1.924-.91c-.9.568-1.992.783-3.291.399-1.205-.358-2.342-1.48-2.904-2.77-.77-.154-1.517-.38-2.172-.806-1.212.288-2.519-.178-3.01-1.434-.365-.93.074-2.056.855-2.633.227-.168.473-.136.669-.006a3.722 3.722 0 0 1 .253-.62c-.029-1.234.418-2.426 1.537-3.088.83-.49 1.821-.544 2.714-.26a4.193 4.193 0 0 1 1.882-.998c1.357-.338 2.785.047 3.75 1.065.209-.062.425-.106.647-.133.08-.568.273-1.114.676-1.54a3.25 3.25 0 0 1 1.01-.72c.171-.643.452-1.219.921-1.7a3.828 3.828 0 0 1-.616-.655 4.152 4.152 0 0 1-.584-.137c-1.02-.328-1.724-.971-2.201-1.773a3.394 3.394 0 0 1-2.739-.434c-.665-.417-1.167-1.085-1.431-1.83l-.755-.265c-.712-.252-1.223-.722-1.515-1.282-.37.133-.779.128-1.112-.129-1.949-1.505-.618-4 1.469-4.496a3.34 3.34 0 0 1 2.25.22 3.66 3.66 0 0 1 1.731-.944c.785-.178 1.612-.047 2.337.3l.187-.003c.73-.542 1.666-.785 2.811-.523 1.296.296 2.179 1.022 2.778 1.967.192-.174.409-.327.645-.456a3.18 3.18 0 0 1 2.072-.34c.23-.33.467-.654.711-.973a2.563 2.563 0 0 1-.996-1.933c-.175-.11-.345-.233-.507-.347-.793-.559-1.465-1.26-1.771-2.2a4.192 4.192 0 0 1-.19-1.45 4.09 4.09 0 0 1-.254-.063c-3.37-.97-4.767-5.616-2.104-8.11 1.399-1.31 3.525-.568 4.908.4.943.659 1.693 1.479 2.372 2.385.032.006.063.008.095.016.975.23 1.751.856 2.324 1.657a3.933 3.933 0 0 1 3.049.722c.7.512 1.139 1.146 1.368 1.835.909-.474 1.845-.89 2.801-1.258.063-.15.128-.302.204-.452.148-.29.34-.544.563-.757a4.345 4.345 0 0 1-.632-.915c-.823-1.605-.526-3.23.384-4.459-.398-.896-.52-1.912-.285-2.879.044-.179.099-.351.164-.517a6.418 6.418 0 0 1-.998-2.88Zm-14.775 64.925c.584-.142.721-.329 1.378-.275a9.198 9.198 0 0 1 1.522.256c1.176.305 2.274.921 3.241 1.646 1.371 1.029-.27 2.94-1.362 1.844l-.033-.035c-.734-.787-1.558-1.402-2.48-1.95-.468-.277-.95-.478-1.439-.712-.338-.161-.533-.425-.851-.593-.075-.04-.057-.161.024-.181Zm3.144-15.491c-.323-.114-.693.13-.78.442-.092.338.104.644.409.767l.034.013c.414.146.791.389 1.113.686l.068.064c.585.57 1.483-.326.896-.896a4.743 4.743 0 0 0-1.74-1.076Zm15.164-23.082c-.333-.73-1.398-.118-1.109.605l.015.035c.3.657.177 1.42-.151 2.04l-.032.059c-.398.713.696 1.353 1.095.64.591-1.059.689-2.27.182-3.38Zm9.206-9.089-.015-.073c-.15-.801-1.372-.462-1.222.337.248 1.328 1.213 2.201 2.45 2.634.772.27 1.103-.954.337-1.223-.82-.287-1.368-.83-1.55-1.675Zm19.975-1.283-.216-.01.164.217c.016-.07.033-.139.052-.207Z" clip-rule="evenodd"></path><path fill="#000" fill-rule="evenodd" d="M164.271 120.837c1.969-.706 4.06-.441 6.046.292l.179.067c1.825.696 4.055 1.905 4.801 3.793.148.374.218.757.227 1.138.244.024.486.056.726.098.493.087.47.872 0 .975a9.44 9.44 0 0 1-.908.149 4.654 4.654 0 0 1-1.609 2.24c-1.732 1.312-4.118 1.559-6.212 1.759a32.1 32.1 0 0 1-6.949-.113l-.812-.104c-1.888-.245-3.995-.561-5.6-1.572-1.512-.951-2.546-2.788-1.906-4.572.655-1.827 2.901-2.602 4.568-3.189a17.948 17.948 0 0 1 7.449-.961Zm-3.342 6.122c.024.534.044 1.068.065 1.602a.768.768 0 0 1-.121.44c1.145.135 2.301.198 3.453.197-.21-.637-.222-1.368-.234-2.049a128.666 128.666 0 0 1-3.163-.19Zm4.242.24.092.345c.142.541.272 1.097.252 1.631.538-.02 1.073-.052 1.606-.098l.679-.058.469-.042c.034-.554.1-1.114.157-1.668-1.085-.029-2.17-.064-3.255-.11Zm4.306.135c.049.488.095.988.115 1.483.872-.135 1.727-.347 2.458-.721.368-.188.662-.415.882-.667-.738-.018-1.474-.055-2.188-.067a59.675 59.675 0 0 1-.423-.008l-.844-.02Zm-15.149-1.125c.057 1.02 1.669 1.748 2.499 1.988.792.229 1.598.414 2.413.562a.65.65 0 0 1-.018-.198c.052-.575.103-1.151.157-1.726l-.437-.034c-1.536-.119-3.133-.213-4.614-.592Zm10.061-3.887c.129 1.278.308 2.549.547 3.811l.437.01c1.049.016 2.099.023 3.148.024l.008-.154a43.861 43.861 0 0 0-.015-3.203c-1.334-.294-2.729-.39-4.125-.488Zm4.672.622c.117 1.072.214 2.146.303 3.221l.92-.002.46-.002c.861-.008 1.746-.065 2.63-.088-.066-.462-.338-.931-.838-1.359-1.06-.903-2.236-1.437-3.475-1.77Zm-5.492-.868a22.017 22.017 0 0 0-3.01.536c.259.751.209 1.61.264 2.394.024.345.044.69.062 1.035 1.06.026 2.121.051 3.181.074a46.16 46.16 0 0 1 .059-3.812l-.115-.008a.683.683 0 0 1-.441-.219Zm-3.682.716c-.463.133-.923.28-1.378.445l-.497.179c-1.197.437-2.781 1.069-3.448 2.045-.113.164-.18.322-.213.476 1.678-.155 3.418.001 5.111.065.023-.222.047-.443.072-.665l.039-.331c.087-.717.086-1.513.314-2.214Zm8.384-15.348c1.595.97 4.026 3.232 2.31 5.637-2.02 2.121-4.929-.31-6.362-1.41-1.329-.852-2.823 1.34-1.589 2.335 10.357 7.671 14.56-6.308 6.448-7.702-.893-.154-1.225.84-.807 1.14Zm-19.555-11.762c2.267-3.942 7.876-3.988 11.085-.978 3.064 2.875 3.443 7.778.996 11.139-2.608 3.583-7.675 4.574-11.783 3.297-3.851-1.197-5.922-5.377-4.601-9.207.714-2.072 2.357-3.504 4.303-4.251Zm-2.112-6.603c1.916-1.696 5.397-3.335 7.981-2.5 1.485.48 2.133 2.875.475 3.634-1.92.878-4.134.52-6.089 1.432-.821.382-1.593.86-2.164 1.562-.45.553-.908 1.28-1.559 1.6-.171.083-.403.085-.54-.07-1.428-1.615.65-4.554 1.896-5.657Zm27.368-2.584c1.185-.333 2.498-.326 3.701-.117 1.203.209 2.424.707 3.405 1.435l.114.085c1.072.808 2.351 1.983 2.283 3.415-.058 1.195-1.314 2.003-2.399 1.377-.885-.511-1.301-1.534-2.05-2.216a7.049 7.049 0 0 0-2.119-1.316 7.281 7.281 0 0 0-2.645-.523c-.711-.011-1.426.222-2.124.297.058.118-.493.063-.81-.042-.234-.1-.235-.396-.154-.588.403-.952 1.867-1.546 2.798-1.807Zm1.289 6.688c1.984-.394 4.189.037 5.85 1.2 2.976 2.086 4.312 6.4 2.928 9.774-1.373 3.348-5.125 5.479-8.703 4.839-3.652-.653-6.478-4.333-6.084-8.04a7.01 7.01 0 0 1 1.874-4.076c.008-.037.016-.074.031-.113.716-1.905 2.072-3.18 4.104-3.584Zm-18.15 3.03c-2.275-1.369-5.618-.604-7.572 1.049-.388.329-.826.232-1.064-.054-1.326 1.07-2.262 2.568-2.412 4.392-.27 3.272 2.059 5.423 5.197 5.671 3.207.253 6.525-.643 8.036-3.716 1.304-2.654.346-5.817-2.185-7.342Zm21.529.142c-1.781-.698-4.335-.286-5.889.91-1.184 1.526-1.76 3.621-1.305 5.337.657 2.478 3.034 4.408 5.645 4.134 2.416-.254 4.6-2.189 4.859-4.646.25-2.363-1.047-4.847-3.31-5.735Zm-1.511 3.708c.406-.29.89.037 1.039.423l.085.175.093.194.016.047c.021.04.047.078.071.116.019.013.177.21.198.236.255.315.39.602.382 1.016a1.254 1.254 0 0 1-1.57 1.196c-.851-.213-1.213-1.093-1.135-1.901.061-.64.294-1.126.821-1.502Zm-23.104.156c.376-.341.955-.37 1.326 0 .203.204.285.43.431.667l.07.108c.152.234.31.458.351.744.097.674-.112 1.301-.776 1.582-.66.278-1.271-.006-1.673-.549-.476-.642-.332-2.003.271-2.552Z" clip-rule="evenodd"></path></svg>