<svg xmlns="http://www.w3.org/2000/svg" width="260" height="324" fill="none" id="man"><path fill="#fff" fill-rule="evenodd" d="M137.498 128.859c11.336-.812 26.877 1.436 30.156 14.366 1.017 4.705 3.02 6.771 6.386 9.848 21.365 27.356-53.178 31.954-57.01 5.278-8.073 2.942-16.861 3.565-24.938 6.537-4.382 1.62-8.354 4.174-12.161 6.845-15.524 11.03-30.828 22.375-46.296 33.485 5.986 2.757 17.366 13.285 12.729 20.36-1.08 1.378-2.684 2.328-4.102 3.335l-.748.535c-1.61 1.153-4.318 3.119-5.816 4.188l-.276.201c-.109.079-.23.167-.341.245 10.802 15.8 23.444 30.377 37.467 43.393 1.194 1.11.705 3.593-1.023 3.882l-2.059.303c-6.648.968-13.422 1.84-20.121 1.314-6.525-.71-10.456-6.488-14.917-10.673-8.907-9.108-17.198-18.823-24.75-29.085l-.157-.217c-2.35-3.213-5.47-6.497-5.699-10.646-.416-1.247.68-3.035 1.733-3.885l.36-.519c5.647-8.126 12.038-15.962 20.046-21.846a2.84 2.84 0 0 1 1.178-2.379l33.466-24.229c8.636-5.945 16.661-12.931 26.02-17.731 9.571-4.61 20.372-4.791 30.179-8.638.208-2.773 6.035-3.481 5.851-3.053 6.149-3.713 9.314-8.13 10.29-12.19.977-4.06-.237-7.762 4.553-9.024Zm82.76 86.985c10.348-15.576 20.212 1.658 24.52 12.045 5.09 14.215-5.451 31.701-12.26 43.956-2.508 3.403-5.807 10.581-10.228 11.102-11.138-.046-22.292-.83-33.436-1.064-7.197-1.786 2.9-12.605 9.874-8.653 2.113.791 3.169 3.191 5.229 3.961.751.16.803-.175 1.108-.923l.044-.104c.544-1.294 1.072-2.596 1.608-3.893 4.538-11.178 9.335-22.258 14.104-33.333 1.019-2.404-.41-4.386-2.268-5.817-1.422-1.171-7.537-4.03-1.776-2.772-2.218-5.151.448-10.38 3.481-14.505Zm-25.692-21.323c.996-.124 2.276.88 2.429 1.853 1.271 8.067-.145 16.042-1.843 23.932l-.312 1.445c-.626 2.878-1.326 5.812-2.887 8.335-1.594 2.574-4.005 4.514-6.772 5.694-8.879 3.539-19.921.039-26.452-6.578-4.178-5.726-.505-12.919.196-19.194-.663-1.691-.907-3.647-1.29-5.39l-.047-.208-1.489-6.504c-.329-1.434.716-3.397 2.434-3.2a151.34 151.34 0 0 0 36.033-.185Z" clip-rule="evenodd"></path><path fill="#000" fill-rule="evenodd" d="M236.38 213.807c-.036-.161.156-.283.281-.163 2.106 2.031 3.594 4.627 5.227 7.032 1.555 2.291 3.247 4.493 4.407 7.021 1.077 2.35 1.772 4.734 1.979 7.317.207 2.564-.061 5.134-.513 7.659-.89 4.975-2.791 9.686-4.878 14.262-2.03 4.448-4.323 8.77-6.744 13.013l-.868 1.515c-1.059 1.845-2.129 3.685-3.275 5.472-1.426 2.224-2.727 4.519-4.608 6.375-1.335 1.32-3.851 0-3.243-1.888.264-.822.472-1.596.881-2.359.311-.581.662-1.145.991-1.718.659-1.145 1.312-2.295 1.971-3.441 1.384-2.407 2.842-4.77 4.213-7.185 2.379-4.189 4.625-8.457 6.611-12.848l.233-.519c1.828-4.067 3.559-8.279 4.362-12.678.845-4.635.088-9.004-1.557-13.36-.852-2.253-1.809-4.455-2.804-6.649l-.191-.419c-.961-2.094-1.98-4.176-2.475-6.439Zm-102.285-80.17c.019-.082.158-.088.171 0 .592 3.936-.725 8.099-2.869 11.373-1.17 1.788-2.613 3.403-4.314 4.701l-.133.1c-1.737 1.299-4.084 2.554-6.241 1.711a1.328 1.328 0 0 1-.19-.089c.243.376.467.772.695 1.167.678 1.177 1.286 2.397 1.948 3.584 1.183 2.124 2.592 4.024 4.373 5.688 7.122 6.65 17.122 8.23 26.513 8.154l.663-.006c4.125-.029 9.52.182 12.705-2.805 1.711-1.604 2.653-3.885 3.505-6.026.837-2.099 1.409-4.265 2.104-6.4-1.451-.995-2.782-2.21-3.828-3.631a14.72 14.72 0 0 1-2.389-4.922l-.071-.265c-.367-1.418-.737-3.293-.145-4.632.068-.154.321-.144.393 0 .319.641.38 1.363.577 2.048.228.797.486 1.589.826 2.344a17.005 17.005 0 0 0 2.567 4.071c.86 1.008 1.791 1.933 2.856 2.711.628-1.084 2.083-1.23 3.302-.873 1.634.478 3.246 1.091 4.821 1.739l.315.13c1.557.646 3.317 1.24 4.775 2.122.885.422 1.734.847 2.533 1.223 3.979 1.87 7.899 3.855 11.802 5.877l.836.434c1.635.852 3.255 1.712 4.677 2.9 1.448 1.209 2.571 2.862 3.628 4.411 2.415 3.542 4.69 7.186 7.077 10.747 4.821 7.186 9.642 14.372 14.491 21.541 1.173 1.735 2.495 3.428 3.547 5.237 1.008 1.729.981 3.504.784 5.434l-.037.354c-.376 3.54-1.024 6.939-3.009 9.975-3.125 4.772-8.048 7.743-13.255 9.789.636.474 1.233.985 1.992 1.311 1.166.499 2.41.757 3.672.86 1.346.108 2.862-.228 3.953.687.437.365.45 1.245 0 1.61-1.048.856-2.403.611-3.68.467l-.077-.008c-1.185-.131-2.353-.351-3.467-.786a9.777 9.777 0 0 1-.811-.362.165.165 0 0 1 .009.081c-.191 1.456-.603 2.833-1.038 4.224l-.277.882a495.65 495.65 0 0 1-1.711 5.393c-1.109 3.42-2.318 6.808-3.531 10.191l-1.047 2.92c-1.075 2.995-2.164 5.986-3.368 8.931-.743 1.818-1.491 3.635-2.237 5.451-.729 1.773-1.335 3.688-2.239 5.377-.744 1.39-2.772.395-2.447-1.034.427-1.874 1.232-3.734 1.847-5.558.625-1.852 1.238-3.705 1.874-5.553 1.105-3.209 2.33-6.375 3.562-9.538l1.22-3.136c1.197-3.072 2.408-6.142 3.702-9.175l.142-.332c1.344-3.172 2.733-6.739 5.176-9.197a.19.19 0 0 1 .12-.056 7.844 7.844 0 0 1-1.656-1.187l-.024-.025c-.196-.207-1.003-1.227-1.263-1.837-.338.12-.676.236-1.014.35-.589.199-1.077.055-1.422-.26l-.656.407c-.701.428-1.455.834-2.23.855-.976.026-1.743-.513-2.264-1.308-.469-.71-.748-1.477-1.342-2.114-.584-.625-1.259-1.153-1.95-1.656l-.814-.593c-1.492-1.09-2.939-2.191-4.14-3.63-.604-.727-1.414-1.59-1.781-2.463a1.441 1.441 0 0 1-.125-.481c-.08.545-.163 1.092-.245 1.638-1.153 7.674-2.085 15.401-2.383 23.161-.146 3.828-.211 7.66-.04 11.489.084 1.913.224 3.824.416 5.73.095.955.194 1.909.311 2.86l.026.22c.034.291.056.573.031.841.929.458 1.464 1.617 1.836 2.521.283.689.063 1.359-.393 1.843a7.974 7.974 0 0 1 1.438 1.748c.083.135-.095.241-.2.156-.67-.532-1.391-.97-2.143-1.306-.395.15-.826.19-1.223.081-.431-.119-.803-.406-1.071-.772a8.465 8.465 0 0 0-6.279 1.416 8.44 8.44 0 0 0-1.105.936c-.059.06-.12.136-.182.21l.42.161c.174.066.316.117.371.128.366.075.738.115 1.109.147l.558.046c2.14.177 4.273.236 6.264 1.132.418.188.272.833-.123.941-1.453.394-2.895.364-4.375.258l-.317-.024c-1.376-.105-2.852-.099-4.194-.479.321.879-.116 2.027-1.458 2.206-4.028.537-8.083.284-12.116-.072-4.073-.359-8.144-.699-12.228-.912-13.21-.696-26.44-.562-39.661-.373l-7.472.108c-5.959.084-11.918.149-17.877.104l-2.788-.026a181.054 181.054 0 0 1-3.536-.061l-.706-.023c-1.403-.051-3.26.16-4.479-.67-1.006-.685-1.23-1.94-.623-2.953.175-.291.416-.551.667-.805.516-4.406.805-8.834 1.101-13.26 1.027-15.488.427-30.895-1.941-46.227-6.355 1.943-12.613 4.38-18.71 6.994a285.065 285.065 0 0 0-9.822 4.419c-2.96 1.406-5.932 3.162-9.095 4.075-.288.255-.69.377-1.046.264l-.047-.017h-.002c-.325.076-.686.03-1.041-.183a23.66 23.66 0 0 1-.216-.133l-.107-.068c-1.114-.702-2.233-1.566-3.022-2.623-.956.888-1.985 1.701-2.997 2.526a332.557 332.557 0 0 0-3.28 2.705c-.43.361-.906.706-1.286 1.122l-.055.061a.551.551 0 0 0-.025.03c1.646 1.065 3.086 2.682 4.377 4.087 1.386 1.509 2.725 3.065 4.052 4.628l1.285 1.516c9.086 10.733 18.264 21.855 30.027 29.744 1.86 1.247.087 4.284-1.76 3.009-3.494-2.407-6.8-5.081-9.976-7.894-5.564-4.926-10.571-10.453-15.26-16.212a287.875 287.875 0 0 1-6.931-8.907l-.766-1.019a145.975 145.975 0 0 1-3.007-4.118l-.204-.293c-.852-1.23-1.759-2.613-2.308-4.03a2.19 2.19 0 0 1-.799.529c-.596.232-1.327-.256-1.472-.837-.355-1.41.87-2.249 1.867-2.997 1.21-.905 2.445-1.778 3.68-2.646l.442-.312c1.545-1.097 3.1-2.222 4.783-3.089a1.03 1.03 0 0 1 .182-.186c.08-.063.158-.125.239-.186-2.012-3.263-4.217-6.4-6.679-9.363a80.543 80.543 0 0 0-5.894-6.374l-.934-.905c-1.412-1.364-2.881-2.749-4.45-3.935l-.49.557a46.933 46.933 0 0 1-2.017 2.174 306.957 306.957 0 0 0-4.088 4.163c-2.245 2.325-4.415 4.72-6.577 7.119l-1.081 1.2c-2.252 2.5-4.665 4.954-6.712 7.625l-.103.136c-.893 1.199-1.53 2.526-1.114 4.049.4 1.469 1.353 2.771 2.175 4.039l.081.127c3.353 5.225 6.945 10.316 10.792 15.188 7.705 9.758 16.493 19.006 26.98 25.791 1.454.94.096 3.278-1.36 2.327-6.124-4.005-11.75-8.815-16.927-13.981-4.751-4.741-9.057-9.961-13.092-15.319a162.41 162.41 0 0 1-5.658-8.012c-1.751-2.648-3.777-5.372-5.047-8.293-.665-1.537-.91-3.2-.365-4.819.5-1.488 1.488-2.724 2.517-3.886l.096-.109a448.908 448.908 0 0 1 7.198-7.881c2.436-2.608 4.984-5.123 7.585-7.564a54.244 54.244 0 0 1 6.45-5.183c-.206-.145-.41-.285-.62-.42-.636-.414-.796-1.3-.238-1.862 1.523-1.539 3.279-2.877 4.93-4.278l4.66-3.954c3.16-2.68 6.32-5.362 9.48-8.044 5.678-4.817 11.323-9.667 16.98-14.505 2.36-2.017 4.74-4.008 7.116-6.006l4.22-3.552 2.063-1.734c1.058-.886 2.138-1.762 3.34-2.437 2.83-1.59 6.231-2.278 9.348-3.121l.208-.056a248.657 248.657 0 0 1 10.546-2.661 274.247 274.247 0 0 1 10.661-2.196c3.207-.596 6.49-1.107 9.76-1.183.812-.309 1.83-.417 2.629-.087.329.137.674.338.98.592 1.599-.563 3.177-.831 4.671-1.782 1.492-.949 2.812-2.196 3.923-3.57 2.297-2.844 3.499-6.205 4.306-9.716Zm36.763 96.332c-1.268-.089-2.409.435-3.541.993.638.277 1.276.552 1.914.824l4.246 1.814c1.403.598 2.888 1.118 4.221 1.855a.728.728 0 0 1 .229.191c1.386-.888 2.852-1.68 4.257-2.524l.967-.577c-1.673.56-3.388.841-5.205.315-2.424-.699-4.528-2.711-7.088-2.891Zm3.473-4.252-.228-.155c-1.229-.844-2.697-1.929-4.19-1.171-.703.358-1.28.935-1.973 1.319a8.635 8.635 0 0 1-2.242.867 9.918 9.918 0 0 1-4.157.054l.021 1.877c1.05.434 2.093.878 3.137 1.326.678-.232 1.33-.51 2.016-.816l.462-.207c1.321-.594 2.654-.991 4.114-.803 2.748.353 4.825 2.396 7.453 3.077 3.222.837 6.129-1.568 9.173-2.162a8.76 8.76 0 0 1 1.534-.166l.171-.001.076-.045c.655-.384 1.636-.752 2.092-1.399.496-.701.539-1.877.701-2.701.017-.082.034-.167.049-.249a4.67 4.67 0 0 0-.875.07c-.929.171-1.804.5-2.67.868-1.637.696-3.239 1.488-4.963 1.951-1.688.454-3.452.67-5.191.418-1.696-.245-3.105-1.01-4.51-1.952Zm.264-6.599-.254-.164c-.672-.429-1.442-.873-2.265-.715-.735.142-1.366.727-2.007 1.088-1.405.793-2.981 1.226-4.588 1.336a11.175 11.175 0 0 1-4.012-.469l.044 4.155c.471.15.959.258 1.473.296 1.559.116 3.08-.258 4.388-1.118l.661-.439c1.132-.745 2.195-1.335 3.693-1.064 1.483.271 2.727 1.222 3.94 2.05l.199.134c1.392.92 2.804 1.513 4.512 1.528 1.845.014 3.668-.499 5.385-1.131 1.705-.626 3.326-1.376 5.149-1.606.558-.07 1.238-.091 1.878.019a78.584 78.584 0 0 0 .67-4.447c-3.235-.871-6.222 1.946-9.226 2.815a9.952 9.952 0 0 1-5.383.011c-1.613-.451-2.881-1.385-4.257-2.279Zm.008-6.998c-.691-.133-1.373.186-1.96.514-1.498.831-2.791 1.987-4.488 2.424-2.182.562-4.569.078-6.737-.841l.03 3.849a9.219 9.219 0 0 0 5.871.24c1.523-.446 2.691-1.65 4.219-2.026 1.562-.386 3.034.365 4.293 1.218l.379.259c1.438.976 2.834 1.825 4.634 1.991 1.904.175 3.558-.421 5.259-1.211l.396-.183c2.153-.99 4.948-2.116 7.097-.99.169-1.598.292-3.196.374-4.796a2.72 2.72 0 0 0-.955-.192c-.843-.004-1.728.262-2.514.539-1.717.607-3.317 1.511-5.017 2.16-1.612.617-3.398.938-5.117.662-1.593-.256-2.789-1.089-3.89-2.23l-.16-.169c-.482-.514-.999-1.079-1.714-1.218Zm1.262-5.932c-.797-.421-1.766-.812-2.688-.689-.878.116-1.464.712-2.005 1.35l-.293.349c-.969 1.146-1.922 2.109-3.414 2.581-1.547.486-3.186.295-4.625-.417-.511-.253-.987-.568-1.464-.879l.025 3.371c.955.475 1.927.905 2.994 1.165 1.969.479 3.642.124 5.326-.962l.177-.115c1.268-.833 2.568-1.825 4.135-1.918 1.529-.092 2.676.756 3.683 1.794l.118.123c1.269 1.339 2.552 1.993 4.441 1.838 1.831-.149 3.544-.958 5.222-1.655l.152-.063c1.534-.63 3.302-1.279 4.986-1.038a5.06 5.06 0 0 1 1.39.4c.068-1.577.1-3.156.106-4.736-.957-.831-2.447-.968-3.644-.628-1.876.532-3.412 1.906-5.204 2.652-1.589.662-3.245.81-4.865.184-1.674-.647-2.986-1.879-4.553-2.707Zm18.16-6.641c-2.803.097-5.546 1.921-8.222 2.617-2.991.776-5.431-.282-8.095-1.457l-.344-.151c-1.366-.601-2.835-1.14-4.35-.895-1.476.241-2.782 1.059-4.052 1.799l-.243.14c-2.313 1.317-4.668 2.219-7.369 1.994.015.848.009 1.693.011 2.522.444.254.87.541 1.276.803l.146.092c1.287.806 2.614 1.335 4.149.838 1.483-.482 2.18-1.773 3.199-2.836.936-.977 2.157-1.57 3.526-1.514 1.472.059 2.865.708 4.081 1.501 1.217.793 2.394 1.817 3.818 2.215 3.194.887 5.93-2.492 8.951-3.018 1.268-.222 2.667.059 3.624.824a227.541 227.541 0 0 0-.106-5.474Zm-24.131-.765a338.735 338.735 0 0 0-5.571.266c-1.012.055-2.256.366-3.249.057a1.534 1.534 0 0 1-.104.294c.15.748.243 1.522.3 2.304a8.865 8.865 0 0 0 2.753-.123c2.17-.45 3.932-1.819 5.871-2.798Zm24.089-.628c-5.339.368-10.718.242-16.066.357l-.641.015c-.026 0-.051.003-.076.003a32.99 32.99 0 0 1 1.828.787l.605.278c1.433.659 2.891 1.198 4.494 1.082 1.718-.125 3.336-.827 4.942-1.393 1.531-.541 3.295-.905 4.929-.668l-.015-.461Z" clip-rule="evenodd"></path><path fill="#fff" fill-rule="evenodd" d="M149.727 53.95c11.996 0 29.554 8.013 30.875 15.723 1.556 9.086 5.012 43.251 3.13 54.431-1.881 11.181-9.218 19.442-25.443 19.442s-28.336-8.852-31.116-11.891c-2.781-3.039-6.15-12.497-6.15-12.497s-8.883-1.507-8.925-8.591c-.041-7.084 4.463-9.273 4.463-9.273s-2.431-29.388 2.678-36.667 18.492-10.678 30.488-10.678Z" clip-rule="evenodd"></path><path fill="#000" fill-rule="evenodd" d="M185.945 91.374c.657 7.142.904 14.345 1.031 21.514.122 6.793-.475 13.877-4.344 19.685-3.382 5.081-8.533 8.769-14.269 10.76-3.264 1.135-6.879 1.555-10.326 1.659a40.124 40.124 0 0 1-5.337-.207 49.152 49.152 0 0 0-.671-.063c-1.499-.134-2.986-.267-4.079-1.4-.344-.357-.34-1.09.17-1.323.969-.441 1.626-.488 2.689-.342.881.12 1.764.215 2.651.277 1.902.133 3.816.137 5.717-.009 3.495-.268 7.069-1.255 10.242-2.752 4.976-2.35 9.25-6.201 11.557-11.254 2.645-5.786 2.512-12.476 2.388-18.707l-.005-.255c-.137-6.911-.393-13.801-.993-20.69-.227-2.605-.551-5.197-.875-7.79-.092-.729-.183-1.459-.272-2.19a71.575 71.575 0 0 0-.839-5.27 46.388 46.388 0 0 0-.347-1.573c-.091-.393-.182-.785-.265-1.18a3.645 3.645 0 0 1-.434.043c-.883.03-1.848-.186-2.503-.814a1.835 1.835 0 0 1-.955.298c-2.349.117-4.721.065-7.088.013-1.293-.028-2.585-.056-3.871-.057a3151.224 3151.224 0 0 0-12.627.016c-3.094.012-6.193.024-9.283-.058a205.77 205.77 0 0 0-1.975-.04c-2.768-.048-5.576-.097-8.28-.599-1.126 4.004-1.086 8.402 1.261 11.978.663 1.008.125 2.196-.739 2.826-.883.642-2.471 1.628-3.83 1.729l-.159.354c-.079.177-.159.353-.236.53-.648 1.477-1.232 2.964-1.641 4.53a34.688 34.688 0 0 0-.545 2.45c.013.145.026.289.041.433 0 .015.002.03.004.046l.026.165.057.305c.058.313.117.625.179.936.197 1.004.349 2.016.457 3.033.196 1.86.177 4.278-1.636 5.379-.969.589-2.131.528-3.156.133-.571-.221-1.072-.518-1.588-.824l-.32-.189a12.39 12.39 0 0 0-.506-.276 9.92 9.92 0 0 1-.63-.351 2.28 2.28 0 0 1-.29-.22 7.942 7.942 0 0 0-1.732.604c-1.008.501-1.893 1.226-2.645 2.059-1.599 1.773-2.079 4.271-1.855 6.59.209 2.158 1.056 4.637 2.761 6.072.742.625 1.667.991 2.645.981.482-.005.926-.106 1.39-.229.199-.052.417-.075.635-.097.287-.03.573-.06.813-.156.627-.252 1.4.515 1.145 1.145-.057.14-.107.275-.155.406-.114.311-.219.595-.389.856a96.005 96.005 0 0 0 5.705 8.283c1.292 1.682 2.746 3.177 4.206 4.678.616.633 1.233 1.268 1.84 1.918.903.968 1.279 2.874-.355 3.288-1.436.368-2.552-.95-3.438-1.995-.118-.14-.233-.275-.343-.401-3.877-4.411-6.807-9.475-8.179-15.192-.618.44-1.328.679-2.076.782a6.743 6.743 0 0 1-4.302-.843c-4.943-2.856-6.139-10.572-3.824-15.408a8.725 8.725 0 0 1 2.389-3.011.705.705 0 0 1-.06-.519c.09-.335.188-.665.291-.994a.287.287 0 0 1-.179-.307l.232-2.414.042-.44c-.009-.435-.023-.871-.036-1.308-.03-1-.06-2.002-.048-3.01.011-1.07.048-2.142.084-3.212.042-1.232.084-2.464.089-3.696.014-3.991.101-7.98.189-11.97.089-4.042.177-8.084.189-12.128.013-3.93.021-7.865-.082-11.792l-.003-.082-.001-.074c-.013-.482-.044-.989-.075-1.51-.174-2.872-.371-6.15 2.229-7.872.505-.334 1.135-.338 1.684-.122 1.581-1.102 3.562-1.632 5.457-1.939 2.794-.45 5.606-.721 8.42-.992.823-.08 1.646-.158 2.469-.242a47.924 47.924 0 0 1 5.803-.224c.994.022 1.994-.014 2.996-.05.945-.034 1.892-.068 2.836-.053 2.205.036 4.428.118 6.642.3.051-.006.103-.01.155-.015l.158-.015c3.353-.322 6.703-.151 10.055.019.811.04 1.623.082 2.435.116 3.967.167 8.156.577 11.719 2.477.458.244.846.521 1.177.83a3.73 3.73 0 0 1 1.304.419c1.147-.232 2.427.282 2.699 1.613.395 1.95.545 3.918.308 5.897l-.009.076-.008.07c.479 1.835.447 3.84.049 5.65.168 2.287.264 4.58.277 6.87.002.347.007.695.012 1.044.018 1.245.036 2.499-.079 3.733-.13 1.388-.701 2.487-1.6 3.542-.17.199-.456.232-.694.183a.887.887 0 0 1-.164-.05c.444.952.811 1.95 1.171 2.928l.238.646c.698 1.872 1.374 3.777 1.853 5.717.972 3.912 1.612 7.898 1.984 11.912Zm-67.324 17.705a4.533 4.533 0 0 0-.622-.382c-.027-.013-1.185-.389-.961.108.076.164-.123.348-.264.202-.402-.407-.178-.898.205-1.261.69-.658 1.721-.506 2.569-.349 1.178.218 2.324.733 3.317 1.395 1.069.712 2.389 1.699 2.6 3.05.192 1.24-1.041 2.608-2.311 1.777-.687-.45-1.168-1.12-1.651-1.791-.344-.479-.689-.959-1.11-1.362a11.938 11.938 0 0 0-1.602-1.271l-.17-.116Z" clip-rule="evenodd"></path><path fill="#000" fill-rule="evenodd" d="M163.152 128.274a8.601 8.601 0 0 1-3.614-2.781 1.671 1.671 0 0 1-.338-1.297c.076-.467.352-.889.728-1.173.377-.284.849-.424 1.305-.353.397.062.791.279 1.104.73l.065.09a5.695 5.695 0 0 0 2.086 1.751 4.7 4.7 0 0 0 2.582.454c1.738-.196 2.935-1.136 4.208-2.413.158-.161.316-.327.474-.496a.746.746 0 0 1 .394-.303.864.864 0 0 1 .97.332c.097.143.153.32.135.524-.117 1.323-.808 2.503-1.79 3.43-1.091 1.03-2.537 1.742-3.898 1.992-1.499.275-3.027.078-4.411-.487Zm5.119-20.408c1.595.971 4.026 3.233 2.31 5.638-2.021 2.12-4.929-.311-6.362-1.411-1.329-.852-2.823 1.34-1.59 2.335 10.358 7.671 14.561-6.308 6.449-7.702-.894-.154-1.225.84-.807 1.14Zm-18.56-8.923c.176-2.189 3.508-2.686 3.84-.52.296 1.94-.053 3.723-.927 5.47-.834 1.668-2.932.89-3.091-.63-.213-2.037.068-2.958.178-4.32Zm25.365-.969c.465-.609 1.136-1.024 1.939-.79 2.511.735 1.771 4.301.889 6.037-.479.942-2.028 1.181-2.728.351-1.14-1.353-1.687-4.056-.236-5.39.039-.068.083-.138.136-.208Zm-22.487-8.608.397-.07c1.227-.212 2.752-.416 3.62.57.461.524.619 1.497 0 1.998-1.088.88-2.292.54-3.596.614a14.3 14.3 0 0 0-3.143.536c-2.272.65-4.123 1.835-6.063 3.137-.254.17-.514-.155-.393-.393 1.12-2.195 3.29-3.997 5.464-5.096 1.161-.587 2.43-1.073 3.714-1.296Zm20.198-.983.304.062c3.304.69 7.596 2.07 9.16 5.317.06.459-.003.557-.054.621l-.017.022c-.043.055-.076.13-.275.193a8.562 8.562 0 0 1-.168-.042c-.717-.188-1.284-.447-1.833-.716l-.596-.293c-.691-.34-1.388-.666-2.127-.907a25.038 25.038 0 0 0-4.844-1.07 1.988 1.988 0 0 1-.972-.37 1.464 1.464 0 0 1-.544-.827c-.116-.467-.082-.82.168-1.242.188-.316.458-.535.767-.661a1.798 1.798 0 0 1 1.031-.087Z" clip-rule="evenodd"></path></svg>